<svg xmlns="http://www.w3.org/2000/svg" xmlns:xlink="http://www.w3.org/1999/xlink" width="1200" zoomAndPan="magnify" viewBox="0 0 900 374.999991" height="500" preserveAspectRatio="xMidYMid meet" version="1.0"><defs><clipPath id="a34f08ee07"><path d="M 788.671875 251 L 900 251 L 900 374.988281 L 788.671875 374.988281 Z M 788.671875 251 " clip-rule="nonzero"/></clipPath><clipPath id="c5993723ad"><path d="M 788.671875 177 L 900 177 L 900 302 L 788.671875 302 Z M 788.671875 177 " clip-rule="nonzero"/></clipPath><clipPath id="36e540a8ac"><path d="M 788.671875 104 L 900 104 L 900 228 L 788.671875 228 Z M 788.671875 104 " clip-rule="nonzero"/></clipPath><clipPath id="c87b07023f"><path d="M 788.671875 30 L 900 30 L 900 154 L 788.671875 154 Z M 788.671875 30 " clip-rule="nonzero"/></clipPath><clipPath id="aedb71382f"><path d="M 0 316.488281 L 36 316.488281 L 36 375 L 0 375 Z M 0 316.488281 " clip-rule="nonzero"/></clipPath><clipPath id="dcdeb7a49f"><path d="M 23 316.488281 L 61 316.488281 L 61 375 L 23 375 Z M 23 316.488281 " clip-rule="nonzero"/></clipPath><clipPath id="5b7e271f97"><path d="M 47 316.488281 L 86 316.488281 L 86 375 L 47 375 Z M 47 316.488281 " clip-rule="nonzero"/></clipPath><clipPath id="2fb6b6bce3"><path d="M 71 316.488281 L 111 316.488281 L 111 375 L 71 375 Z M 71 316.488281 " clip-rule="nonzero"/></clipPath><clipPath id="6abcd1edca"><path d="M 95 316.488281 L 136 316.488281 L 136 375 L 95 375 Z M 95 316.488281 " clip-rule="nonzero"/></clipPath><clipPath id="0902ffb5f5"><path d="M 119 316.488281 L 161 316.488281 L 161 375 L 119 375 Z M 119 316.488281 " clip-rule="nonzero"/></clipPath><clipPath id="380417e471"><path d="M 142 316.488281 L 186 316.488281 L 186 375 L 142 375 Z M 142 316.488281 " clip-rule="nonzero"/></clipPath><clipPath id="e16d241c7c"><path d="M 166 316.488281 L 211 316.488281 L 211 375 L 166 375 Z M 166 316.488281 " clip-rule="nonzero"/></clipPath><clipPath id="ae8c50af6c"><path d="M 190 316.488281 L 236 316.488281 L 236 375 L 190 375 Z M 190 316.488281 " clip-rule="nonzero"/></clipPath><clipPath id="872cc8f1f0"><path d="M 214 316.488281 L 261 316.488281 L 261 375 L 214 375 Z M 214 316.488281 " clip-rule="nonzero"/></clipPath><clipPath id="30351d56d5"><path d="M 238 316.488281 L 286 316.488281 L 286 375 L 238 375 Z M 238 316.488281 " clip-rule="nonzero"/></clipPath><clipPath id="f048b7213b"><path d="M 262 316.488281 L 311 316.488281 L 311 375 L 262 375 Z M 262 316.488281 " clip-rule="nonzero"/></clipPath><clipPath id="7b24b73d05"><path d="M 285 316.488281 L 336 316.488281 L 336 375 L 285 375 Z M 285 316.488281 " clip-rule="nonzero"/></clipPath><clipPath id="9ed95dd64c"><path d="M 309 316.488281 L 361 316.488281 L 361 375 L 309 375 Z M 309 316.488281 " clip-rule="nonzero"/></clipPath><clipPath id="307e416b60"><path d="M 333 316.488281 L 386 316.488281 L 386 375 L 333 375 Z M 333 316.488281 " clip-rule="nonzero"/></clipPath><clipPath id="f86a439dd3"><path d="M 357 316.488281 L 411 316.488281 L 411 375 L 357 375 Z M 357 316.488281 " clip-rule="nonzero"/></clipPath><clipPath id="de2daa64cf"><path d="M 381 316.488281 L 436 316.488281 L 436 375 L 381 375 Z M 381 316.488281 " clip-rule="nonzero"/></clipPath><clipPath id="8a2cfe34da"><path d="M 404 316.488281 L 460.5 316.488281 L 460.5 375 L 404 375 Z M 404 316.488281 " clip-rule="nonzero"/></clipPath></defs><g clip-path="url(#a34f08ee07)"><path fill="#000000" d="M 936.394531 251.824219 L 936.394531 301.089844 L 862.496094 374.988281 L 788.597656 301.089844 L 788.597656 251.824219 L 862.496094 325.722656 Z M 936.394531 251.824219 " fill-opacity="1" fill-rule="nonzero"/></g><g clip-path="url(#c5993723ad)"><path fill="#000000" d="M 936.394531 177.925781 L 936.394531 227.191406 L 862.496094 301.089844 L 788.597656 227.191406 L 788.597656 177.925781 L 862.496094 251.824219 Z M 936.394531 177.925781 " fill-opacity="1" fill-rule="nonzero"/></g><g clip-path="url(#36e540a8ac)"><path fill="#000000" d="M 936.394531 104.027344 L 936.394531 153.292969 L 862.496094 227.191406 L 788.597656 153.292969 L 788.597656 104.027344 L 862.496094 177.925781 Z M 936.394531 104.027344 " fill-opacity="1" fill-rule="nonzero"/></g><g clip-path="url(#c87b07023f)"><path fill="#000000" d="M 936.394531 30.128906 L 936.394531 79.394531 L 862.496094 153.292969 L 788.597656 79.394531 L 788.597656 30.128906 L 862.496094 104.027344 Z M 936.394531 30.128906 " fill-opacity="1" fill-rule="nonzero"/></g><g clip-path="url(#aedb71382f)"><path fill="#000000" d="M 34.804688 316.488281 L 0.0117188 376.746094 L 0.953125 376.746094 L 35.738281 316.488281 Z M 34.804688 316.488281 " fill-opacity="1" fill-rule="evenodd"/></g><g clip-path="url(#dcdeb7a49f)"><path fill="#000000" d="M 58.621094 316.488281 C 47.023438 336.574219 35.425781 356.660156 23.828125 376.746094 C 24.535156 376.746094 25.242188 376.746094 25.9375 376.746094 C 37.535156 356.660156 49.132812 336.574219 60.730469 316.488281 C 60.023438 316.488281 59.320312 316.488281 58.621094 316.488281 Z M 58.621094 316.488281 " fill-opacity="1" fill-rule="evenodd"/></g><g clip-path="url(#5b7e271f97)"><path fill="#000000" d="M 82.4375 316.488281 C 70.839844 336.574219 59.242188 356.660156 47.65625 376.746094 C 48.746094 376.746094 49.839844 376.746094 50.933594 376.746094 C 62.53125 356.660156 74.128906 336.574219 85.71875 316.488281 C 84.625 316.488281 83.53125 316.488281 82.4375 316.488281 Z M 82.4375 316.488281 " fill-opacity="1" fill-rule="evenodd"/></g><g clip-path="url(#2fb6b6bce3)"><path fill="#000000" d="M 106.257812 316.488281 C 94.660156 336.574219 83.0625 356.660156 71.472656 376.746094 C 72.949219 376.746094 74.4375 376.746094 75.917969 376.746094 C 87.515625 356.660156 99.113281 336.574219 110.710938 316.488281 C 109.222656 316.488281 107.742188 316.488281 106.257812 316.488281 Z M 106.257812 316.488281 " fill-opacity="1" fill-rule="evenodd"/></g><g clip-path="url(#6abcd1edca)"><path fill="#000000" d="M 130.074219 316.488281 C 118.484375 336.574219 106.886719 356.660156 95.289062 376.746094 C 97.164062 376.746094 99.039062 376.746094 100.910156 376.746094 C 112.507812 356.660156 124.097656 336.574219 135.695312 316.488281 C 133.820312 316.488281 131.949219 316.488281 130.074219 316.488281 Z M 130.074219 316.488281 " fill-opacity="1" fill-rule="evenodd"/></g><g clip-path="url(#0902ffb5f5)"><path fill="#000000" d="M 153.898438 316.488281 C 142.300781 336.574219 130.703125 356.660156 119.105469 376.746094 C 121.367188 376.746094 123.636719 376.746094 125.898438 376.746094 C 137.496094 356.660156 149.09375 336.574219 160.691406 316.488281 C 158.421875 316.488281 156.160156 316.488281 153.898438 316.488281 Z M 153.898438 316.488281 " fill-opacity="1" fill-rule="evenodd"/></g><g clip-path="url(#380417e471)"><path fill="#000000" d="M 177.71875 316.488281 C 166.121094 336.574219 154.523438 356.660156 142.925781 376.746094 C 145.578125 376.746094 148.234375 376.746094 150.890625 376.746094 C 162.480469 356.660156 174.078125 336.574219 185.675781 316.488281 C 183.019531 316.488281 180.371094 316.488281 177.71875 316.488281 Z M 177.71875 316.488281 " fill-opacity="1" fill-rule="evenodd"/></g><g clip-path="url(#e16d241c7c)"><path fill="#000000" d="M 201.535156 316.488281 C 189.9375 336.574219 178.339844 356.660156 166.75 376.746094 C 169.792969 376.746094 172.835938 376.746094 175.875 376.746094 C 187.472656 356.660156 199.070312 336.574219 210.667969 316.488281 C 207.617188 316.488281 204.578125 316.488281 201.535156 316.488281 Z M 201.535156 316.488281 " fill-opacity="1" fill-rule="evenodd"/></g><g clip-path="url(#ae8c50af6c)"><path fill="#000000" d="M 225.351562 316.488281 C 213.753906 336.574219 202.164062 356.660156 190.566406 376.746094 C 193.996094 376.746094 197.433594 376.746094 200.863281 376.746094 C 212.460938 356.660156 224.058594 336.574219 235.65625 316.488281 C 232.21875 316.488281 228.789062 316.488281 225.351562 316.488281 Z M 225.351562 316.488281 " fill-opacity="1" fill-rule="evenodd"/></g><g clip-path="url(#872cc8f1f0)"><path fill="#000000" d="M 249.175781 316.488281 C 237.578125 336.574219 225.980469 356.660156 214.382812 376.746094 C 218.207031 376.746094 222.03125 376.746094 225.855469 376.746094 C 237.453125 356.660156 249.050781 336.574219 260.648438 316.488281 C 256.816406 316.488281 252.992188 316.488281 249.175781 316.488281 Z M 249.175781 316.488281 " fill-opacity="1" fill-rule="evenodd"/></g><g clip-path="url(#30351d56d5)"><path fill="#000000" d="M 272.996094 316.488281 C 261.398438 336.574219 249.800781 356.660156 238.203125 376.746094 C 242.421875 376.746094 246.632812 376.746094 250.839844 376.746094 C 262.441406 356.660156 274.039062 336.574219 285.636719 316.488281 C 281.425781 316.488281 277.207031 316.488281 272.996094 316.488281 Z M 272.996094 316.488281 " fill-opacity="1" fill-rule="evenodd"/></g><g clip-path="url(#f048b7213b)"><path fill="#000000" d="M 296.8125 316.488281 C 285.214844 336.574219 273.617188 356.660156 262.019531 376.746094 C 266.625 376.746094 271.230469 376.746094 275.835938 376.746094 C 287.433594 356.660156 299.03125 336.574219 310.621094 316.488281 C 306.023438 316.488281 301.417969 316.488281 296.8125 316.488281 Z M 296.8125 316.488281 " fill-opacity="1" fill-rule="evenodd"/></g><g clip-path="url(#7b24b73d05)"><path fill="#000000" d="M 320.628906 316.488281 C 309.03125 336.574219 297.433594 356.660156 285.84375 376.746094 C 290.835938 376.746094 295.828125 376.746094 300.820312 376.746094 C 312.417969 356.660156 324.015625 336.574219 335.613281 316.488281 C 330.621094 316.488281 325.621094 316.488281 320.628906 316.488281 Z M 320.628906 316.488281 " fill-opacity="1" fill-rule="evenodd"/></g><g clip-path="url(#9ed95dd64c)"><path fill="#000000" d="M 344.445312 316.488281 C 332.859375 336.574219 321.261719 356.660156 309.664062 376.746094 C 315.042969 376.746094 320.429688 376.746094 325.816406 376.746094 C 337.414062 356.660156 349.003906 336.574219 360.601562 316.488281 C 355.222656 316.488281 349.835938 316.488281 344.445312 316.488281 Z M 344.445312 316.488281 " fill-opacity="1" fill-rule="evenodd"/></g><g clip-path="url(#307e416b60)"><path fill="#000000" d="M 368.273438 316.488281 C 356.675781 336.574219 345.078125 356.660156 333.480469 376.746094 C 339.253906 376.746094 345.027344 376.746094 350.800781 376.746094 C 362.398438 356.660156 373.996094 336.574219 385.59375 316.488281 C 379.820312 316.488281 374.046875 316.488281 368.273438 316.488281 Z M 368.273438 316.488281 " fill-opacity="1" fill-rule="evenodd"/></g><g clip-path="url(#f86a439dd3)"><path fill="#000000" d="M 392.089844 316.488281 C 380.492188 336.574219 368.894531 356.660156 357.296875 376.746094 C 363.464844 376.746094 369.625 376.746094 375.792969 376.746094 C 387.382812 356.660156 398.980469 336.574219 410.578125 316.488281 C 404.417969 316.488281 398.25 316.488281 392.089844 316.488281 Z M 392.089844 316.488281 " fill-opacity="1" fill-rule="evenodd"/></g><g clip-path="url(#de2daa64cf)"><path fill="#000000" d="M 415.90625 316.488281 C 404.308594 336.574219 392.710938 356.660156 381.113281 376.746094 C 387.667969 376.746094 394.226562 376.746094 400.78125 376.746094 C 412.378906 356.660156 423.976562 336.574219 435.574219 316.488281 C 429.019531 316.488281 422.464844 316.488281 415.90625 316.488281 Z M 415.90625 316.488281 " fill-opacity="1" fill-rule="evenodd"/></g><g clip-path="url(#8a2cfe34da)"><path fill="#000000" d="M 439.726562 316.488281 L 404.941406 376.746094 L 425.773438 376.746094 L 460.558594 316.488281 Z M 439.726562 316.488281 " fill-opacity="1" fill-rule="evenodd"/></g></svg>