<svg xmlns="http://www.w3.org/2000/svg" xmlns:xlink="http://www.w3.org/1999/xlink" width="1200" zoomAndPan="magnify" viewBox="0 0 900 374.999991" height="500" preserveAspectRatio="xMidYMid meet" version="1.0"><defs><clipPath id="dc20397638"><path d="M 230 38 L 386 38 L 386 337.5 L 230 337.5 Z M 230 38 " clip-rule="nonzero"/></clipPath><clipPath id="b9edd890b6"><path d="M 47 38 L 197 38 L 197 337.5 L 47 337.5 Z M 47 38 " clip-rule="nonzero"/></clipPath></defs><path fill="#9d191d" d="M 196.898438 187.914062 C 196.898438 189.003906 196.847656 190.089844 196.738281 191.171875 C 196.632812 192.257812 196.472656 193.332031 196.261719 194.402344 C 196.046875 195.46875 195.785156 196.523438 195.46875 197.566406 C 195.152344 198.605469 194.785156 199.628906 194.367188 200.636719 C 193.953125 201.640625 193.488281 202.625 192.972656 203.585938 C 192.460938 204.546875 191.902344 205.476562 191.296875 206.382812 C 190.691406 207.289062 190.042969 208.160156 189.355469 209.003906 C 188.664062 209.84375 187.933594 210.652344 187.164062 211.421875 C 186.394531 212.191406 185.585938 212.921875 184.746094 213.609375 C 183.90625 214.300781 183.03125 214.949219 182.125 215.554688 C 181.21875 216.160156 180.289062 216.71875 179.328125 217.230469 C 178.367188 217.746094 177.382812 218.210938 176.378906 218.625 C 175.375 219.042969 174.347656 219.410156 173.308594 219.726562 C 172.265625 220.042969 171.210938 220.304688 170.144531 220.519531 C 169.074219 220.730469 168 220.890625 166.917969 220.996094 C 165.832031 221.101562 164.746094 221.15625 163.65625 221.15625 C 162.570312 221.15625 161.484375 221.101562 160.398438 220.996094 C 159.316406 220.890625 158.242188 220.730469 157.171875 220.519531 C 156.105469 220.304688 155.050781 220.042969 154.007812 219.726562 C 152.96875 219.410156 151.941406 219.042969 150.9375 218.625 C 149.929688 218.210938 148.949219 217.746094 147.988281 217.230469 C 147.027344 216.71875 146.09375 216.160156 145.191406 215.554688 C 144.285156 214.949219 143.410156 214.300781 142.570312 213.609375 C 141.730469 212.921875 140.921875 212.191406 140.152344 211.421875 C 139.382812 210.652344 138.652344 209.84375 137.960938 209.003906 C 137.273438 208.160156 136.625 207.289062 136.019531 206.382812 C 135.414062 205.476562 134.855469 204.546875 134.34375 203.585938 C 133.828125 202.625 133.363281 201.640625 132.949219 200.636719 C 132.53125 199.628906 132.164062 198.605469 131.847656 197.566406 C 131.53125 196.523438 131.269531 195.46875 131.054688 194.402344 C 130.84375 193.332031 130.683594 192.257812 130.578125 191.171875 C 130.46875 190.089844 130.417969 189.003906 130.417969 187.914062 C 130.417969 186.828125 130.46875 185.742188 130.578125 184.65625 C 130.683594 183.574219 130.84375 182.5 131.054688 181.429688 C 131.269531 180.363281 131.53125 179.308594 131.847656 178.265625 C 132.164062 177.222656 132.53125 176.199219 132.949219 175.195312 C 133.363281 174.1875 133.828125 173.207031 134.34375 172.246094 C 134.855469 171.285156 135.414062 170.351562 136.019531 169.449219 C 136.625 168.542969 137.273438 167.667969 137.960938 166.828125 C 138.652344 165.984375 139.382812 165.179688 140.152344 164.410156 C 140.921875 163.640625 141.730469 162.910156 142.570312 162.21875 C 143.410156 161.527344 144.285156 160.882812 145.191406 160.277344 C 146.09375 159.671875 147.027344 159.113281 147.988281 158.597656 C 148.949219 158.085938 149.929688 157.621094 150.9375 157.203125 C 151.941406 156.789062 152.96875 156.421875 154.007812 156.105469 C 155.050781 155.789062 156.105469 155.527344 157.171875 155.3125 C 158.242188 155.101562 159.316406 154.941406 160.398438 154.835938 C 161.484375 154.726562 162.570312 154.675781 163.65625 154.675781 C 164.746094 154.675781 165.832031 154.726562 166.917969 154.835938 C 168 154.941406 169.074219 155.101562 170.144531 155.3125 C 171.210938 155.527344 172.265625 155.789062 173.308594 156.105469 C 174.347656 156.421875 175.375 156.789062 176.378906 157.203125 C 177.382812 157.621094 178.367188 158.085938 179.328125 158.597656 C 180.289062 159.113281 181.21875 159.671875 182.125 160.277344 C 183.03125 160.882812 183.90625 161.527344 184.746094 162.21875 C 185.585938 162.910156 186.394531 163.640625 187.164062 164.410156 C 187.933594 165.179688 188.664062 165.984375 189.355469 166.828125 C 190.042969 167.667969 190.691406 168.542969 191.296875 169.449219 C 191.902344 170.351562 192.460938 171.285156 192.972656 172.246094 C 193.488281 173.207031 193.953125 174.1875 194.367188 175.195312 C 194.785156 176.199219 195.152344 177.222656 195.46875 178.265625 C 195.785156 179.308594 196.046875 180.363281 196.261719 181.429688 C 196.472656 182.5 196.632812 183.574219 196.738281 184.65625 C 196.847656 185.742188 196.898438 186.828125 196.898438 187.914062 Z M 196.898438 187.914062 " fill-opacity="1" fill-rule="nonzero"/><path fill="#9d191d" d="M 296.621094 187.914062 C 296.621094 189.003906 296.570312 190.089844 296.460938 191.171875 C 296.355469 192.257812 296.195312 193.332031 295.984375 194.402344 C 295.769531 195.46875 295.507812 196.523438 295.191406 197.566406 C 294.875 198.605469 294.507812 199.628906 294.09375 200.636719 C 293.675781 201.640625 293.210938 202.625 292.695312 203.585938 C 292.183594 204.546875 291.625 205.476562 291.019531 206.382812 C 290.414062 207.289062 289.765625 208.160156 289.078125 209.003906 C 288.386719 209.84375 287.65625 210.652344 286.886719 211.421875 C 286.117188 212.191406 285.3125 212.921875 284.46875 213.609375 C 283.628906 214.300781 282.753906 214.949219 281.847656 215.554688 C 280.945312 216.160156 280.011719 216.71875 279.050781 217.230469 C 278.089844 217.746094 277.109375 218.210938 276.101562 218.625 C 275.097656 219.042969 274.074219 219.410156 273.03125 219.726562 C 271.988281 220.042969 270.933594 220.304688 269.867188 220.519531 C 268.796875 220.730469 267.722656 220.890625 266.640625 220.996094 C 265.554688 221.101562 264.46875 221.15625 263.382812 221.15625 C 262.292969 221.15625 261.207031 221.101562 260.121094 220.996094 C 259.039062 220.890625 257.964844 220.730469 256.894531 220.519531 C 255.828125 220.304688 254.773438 220.042969 253.730469 219.726562 C 252.691406 219.410156 251.667969 219.042969 250.660156 218.625 C 249.65625 218.210938 248.671875 217.746094 247.710938 217.230469 C 246.75 216.71875 245.820312 216.160156 244.914062 215.554688 C 244.007812 214.949219 243.136719 214.300781 242.292969 213.609375 C 241.453125 212.921875 240.644531 212.191406 239.875 211.421875 C 239.105469 210.652344 238.375 209.84375 237.683594 209.003906 C 236.996094 208.160156 236.347656 207.289062 235.742188 206.382812 C 235.136719 205.476562 234.578125 204.546875 234.066406 203.585938 C 233.550781 202.625 233.085938 201.640625 232.671875 200.636719 C 232.253906 199.628906 231.886719 198.605469 231.570312 197.566406 C 231.253906 196.523438 230.992188 195.46875 230.777344 194.402344 C 230.566406 193.332031 230.40625 192.257812 230.300781 191.171875 C 230.195312 190.089844 230.140625 189.003906 230.140625 187.914062 C 230.140625 186.828125 230.195312 185.742188 230.300781 184.65625 C 230.40625 183.574219 230.566406 182.5 230.777344 181.429688 C 230.992188 180.363281 231.253906 179.308594 231.570312 178.265625 C 231.886719 177.222656 232.253906 176.199219 232.671875 175.195312 C 233.085938 174.1875 233.550781 173.207031 234.066406 172.246094 C 234.578125 171.285156 235.136719 170.351562 235.742188 169.449219 C 236.347656 168.542969 236.996094 167.667969 237.683594 166.828125 C 238.375 165.984375 239.105469 165.179688 239.875 164.410156 C 240.644531 163.640625 241.453125 162.910156 242.292969 162.21875 C 243.136719 161.527344 244.007812 160.882812 244.914062 160.277344 C 245.820312 159.671875 246.75 159.113281 247.710938 158.597656 C 248.671875 158.085938 249.65625 157.621094 250.660156 157.203125 C 251.667969 156.789062 252.691406 156.421875 253.730469 156.105469 C 254.773438 155.789062 255.828125 155.527344 256.894531 155.3125 C 257.964844 155.101562 259.039062 154.941406 260.121094 154.835938 C 261.207031 154.726562 262.292969 154.675781 263.382812 154.675781 C 264.46875 154.675781 265.554688 154.726562 266.640625 154.835938 C 267.722656 154.941406 268.796875 155.101562 269.867188 155.3125 C 270.933594 155.527344 271.988281 155.789062 273.03125 156.105469 C 274.074219 156.421875 275.097656 156.789062 276.101562 157.203125 C 277.109375 157.621094 278.089844 158.085938 279.050781 158.597656 C 280.011719 159.113281 280.945312 159.671875 281.847656 160.277344 C 282.753906 160.882812 283.628906 161.527344 284.46875 162.21875 C 285.3125 162.910156 286.117188 163.640625 286.886719 164.410156 C 287.65625 165.179688 288.386719 165.984375 289.078125 166.828125 C 289.765625 167.667969 290.414062 168.542969 291.019531 169.449219 C 291.625 170.351562 292.183594 171.285156 292.695312 172.246094 C 293.210938 173.207031 293.675781 174.1875 294.089844 175.195312 C 294.507812 176.199219 294.875 177.222656 295.191406 178.265625 C 295.507812 179.308594 295.769531 180.363281 295.984375 181.429688 C 296.195312 182.5 296.355469 183.574219 296.460938 184.65625 C 296.570312 185.742188 296.621094 186.828125 296.621094 187.914062 Z M 296.621094 187.914062 " fill-opacity="1" fill-rule="nonzero"/><path fill="#9d191d" d="M 288.3125 129.742188 C 286.757812 129.746094 285.234375 129.535156 283.742188 129.105469 C 228.601562 113.3125 198.421875 113.3125 143.296875 129.105469 C 142.773438 129.253906 142.246094 129.378906 141.710938 129.476562 C 141.175781 129.574219 140.636719 129.644531 140.09375 129.6875 C 139.550781 129.734375 139.007812 129.75 138.460938 129.742188 C 137.917969 129.734375 137.375 129.699219 136.835938 129.636719 C 136.292969 129.574219 135.757812 129.484375 135.226562 129.371094 C 134.691406 129.257812 134.167969 129.117188 133.648438 128.949219 C 133.132812 128.785156 132.621094 128.59375 132.121094 128.375 C 131.625 128.160156 131.136719 127.917969 130.660156 127.65625 C 130.183594 127.390625 129.722656 127.105469 129.273438 126.792969 C 128.824219 126.484375 128.394531 126.152344 127.980469 125.800781 C 127.5625 125.449219 127.167969 125.078125 126.789062 124.6875 C 126.410156 124.296875 126.050781 123.886719 125.710938 123.460938 C 125.375 123.035156 125.058594 122.59375 124.761719 122.136719 C 124.464844 121.679688 124.195312 121.207031 123.945312 120.722656 C 123.695312 120.238281 123.472656 119.746094 123.273438 119.238281 C 123.070312 118.730469 122.898438 118.21875 122.746094 117.695312 C 122.597656 117.171875 122.472656 116.640625 122.375 116.105469 C 122.277344 115.570312 122.207031 115.03125 122.164062 114.488281 C 122.117188 113.945312 122.097656 113.402344 122.109375 112.859375 C 122.117188 112.3125 122.152344 111.769531 122.214844 111.230469 C 122.277344 110.691406 122.363281 110.152344 122.480469 109.621094 C 122.59375 109.089844 122.734375 108.5625 122.902344 108.046875 C 123.066406 107.527344 123.257812 107.019531 123.476562 106.519531 C 123.691406 106.019531 123.929688 105.53125 124.195312 105.054688 C 124.460938 104.578125 124.746094 104.117188 125.054688 103.667969 C 125.367188 103.222656 125.695312 102.789062 126.046875 102.375 C 126.402344 101.960938 126.773438 101.5625 127.164062 101.183594 C 127.554688 100.804688 127.964844 100.445312 128.390625 100.109375 C 128.816406 99.769531 129.257812 99.453125 129.714844 99.15625 C 130.171875 98.863281 130.644531 98.589844 131.125 98.339844 C 131.609375 98.09375 132.105469 97.867188 132.613281 97.667969 C 133.117188 97.46875 133.632812 97.292969 134.15625 97.144531 C 194.972656 79.757812 232.050781 79.757812 292.882812 97.144531 C 293.839844 97.414062 294.761719 97.773438 295.652344 98.210938 C 296.546875 98.648438 297.390625 99.164062 298.191406 99.753906 C 298.992188 100.347656 299.730469 101.003906 300.414062 101.726562 C 301.09375 102.449219 301.707031 103.230469 302.25 104.0625 C 302.789062 104.894531 303.253906 105.769531 303.640625 106.6875 C 304.023438 107.605469 304.324219 108.546875 304.539062 109.519531 C 304.753906 110.488281 304.882812 111.472656 304.921875 112.464844 C 304.960938 113.457031 304.914062 114.445312 304.773438 115.429688 C 304.636719 116.414062 304.410156 117.378906 304.101562 118.324219 C 303.789062 119.269531 303.398438 120.175781 302.921875 121.050781 C 302.449219 121.925781 301.902344 122.75 301.277344 123.523438 C 300.65625 124.300781 299.96875 125.015625 299.21875 125.667969 C 298.46875 126.320312 297.667969 126.898438 296.8125 127.40625 C 295.957031 127.914062 295.066406 128.34375 294.132812 128.691406 C 293.203125 129.039062 292.25 129.300781 291.269531 129.480469 C 290.292969 129.65625 289.304688 129.742188 288.3125 129.742188 Z M 288.3125 129.742188 " fill-opacity="1" fill-rule="nonzero"/><path fill="#9d191d" d="M 213.519531 291.859375 C 198.671875 291.742188 183.90625 290.578125 169.222656 288.371094 C 154.539062 286.164062 140.082031 282.9375 125.855469 278.6875 C 125.332031 278.539062 124.816406 278.363281 124.308594 278.164062 C 123.804688 277.964844 123.308594 277.738281 122.824219 277.488281 C 122.339844 277.242188 121.871094 276.96875 121.414062 276.671875 C 120.957031 276.378906 120.511719 276.0625 120.085938 275.722656 C 119.660156 275.382812 119.253906 275.027344 118.863281 274.648438 C 118.46875 274.269531 118.097656 273.871094 117.746094 273.457031 C 117.394531 273.039062 117.0625 272.609375 116.753906 272.160156 C 116.445312 271.714844 116.15625 271.25 115.894531 270.777344 C 115.628906 270.300781 115.390625 269.8125 115.171875 269.3125 C 114.957031 268.8125 114.765625 268.304688 114.597656 267.785156 C 114.433594 267.265625 114.292969 266.742188 114.175781 266.210938 C 114.0625 265.679688 113.972656 265.140625 113.914062 264.601562 C 113.851562 264.058594 113.816406 263.515625 113.804688 262.972656 C 113.796875 262.429688 113.816406 261.886719 113.859375 261.34375 C 113.90625 260.800781 113.976562 260.261719 114.074219 259.726562 C 114.171875 259.191406 114.296875 258.660156 114.445312 258.136719 C 114.59375 257.613281 114.769531 257.097656 114.96875 256.59375 C 115.171875 256.085938 115.394531 255.589844 115.644531 255.105469 C 115.890625 254.625 116.164062 254.152344 116.460938 253.695312 C 116.753906 253.238281 117.070312 252.796875 117.410156 252.371094 C 117.75 251.941406 118.109375 251.535156 118.488281 251.144531 C 118.863281 250.753906 119.261719 250.382812 119.675781 250.027344 C 120.09375 249.675781 120.523438 249.347656 120.972656 249.035156 C 121.417969 248.726562 121.882812 248.441406 122.355469 248.175781 C 122.832031 247.910156 123.320312 247.671875 123.820312 247.453125 C 124.320312 247.238281 124.828125 247.046875 125.347656 246.882812 C 125.867188 246.714844 126.390625 246.574219 126.921875 246.460938 C 127.457031 246.34375 127.992188 246.257812 128.53125 246.195312 C 129.074219 246.132812 129.617188 246.097656 130.160156 246.089844 C 130.703125 246.078125 131.25 246.097656 131.789062 246.140625 C 132.332031 246.1875 132.871094 246.257812 133.40625 246.355469 C 133.941406 246.453125 134.472656 246.578125 134.996094 246.726562 C 141.347656 248.679688 147.765625 250.390625 154.246094 251.867188 C 160.722656 253.339844 167.25 254.570312 173.820312 255.558594 C 180.394531 256.542969 186.992188 257.285156 193.621094 257.78125 C 200.246094 258.277344 206.882812 258.523438 213.527344 258.523438 C 220.171875 258.523438 226.808594 258.277344 233.4375 257.78125 C 240.0625 257.285156 246.664062 256.542969 253.234375 255.558594 C 259.804688 254.570312 266.332031 253.339844 272.8125 251.867188 C 279.292969 250.390625 285.707031 248.679688 292.058594 246.726562 C 292.582031 246.578125 293.113281 246.453125 293.648438 246.355469 C 294.183594 246.257812 294.722656 246.1875 295.265625 246.144531 C 295.808594 246.097656 296.351562 246.082031 296.894531 246.089844 C 297.4375 246.097656 297.980469 246.132812 298.523438 246.195312 C 299.0625 246.257812 299.597656 246.347656 300.132812 246.460938 C 300.664062 246.578125 301.1875 246.71875 301.707031 246.882812 C 302.226562 247.050781 302.734375 247.242188 303.234375 247.457031 C 303.730469 247.675781 304.21875 247.914062 304.695312 248.179688 C 305.171875 248.441406 305.632812 248.730469 306.082031 249.039062 C 306.527344 249.347656 306.960938 249.679688 307.375 250.03125 C 307.789062 250.382812 308.1875 250.753906 308.566406 251.148438 C 308.945312 251.539062 309.300781 251.945312 309.640625 252.371094 C 309.980469 252.796875 310.296875 253.238281 310.589844 253.699219 C 310.886719 254.15625 311.160156 254.625 311.40625 255.109375 C 311.65625 255.59375 311.878906 256.089844 312.082031 256.59375 C 312.28125 257.101562 312.457031 257.617188 312.605469 258.140625 C 312.753906 258.660156 312.878906 259.191406 312.976562 259.726562 C 313.074219 260.261719 313.144531 260.800781 313.191406 261.34375 C 313.234375 261.886719 313.253906 262.429688 313.246094 262.972656 C 313.234375 263.515625 313.199219 264.058594 313.136719 264.601562 C 313.078125 265.140625 312.988281 265.679688 312.875 266.210938 C 312.757812 266.742188 312.617188 267.265625 312.453125 267.785156 C 312.285156 268.304688 312.09375 268.8125 311.878906 269.3125 C 311.664062 269.8125 311.421875 270.300781 311.160156 270.773438 C 310.894531 271.25 310.609375 271.710938 310.296875 272.160156 C 309.988281 272.609375 309.65625 273.039062 309.304688 273.453125 C 308.953125 273.871094 308.582031 274.265625 308.191406 274.644531 C 307.800781 275.023438 307.394531 275.382812 306.964844 275.722656 C 306.539062 276.058594 306.097656 276.378906 305.640625 276.671875 C 305.183594 276.96875 304.714844 277.238281 304.230469 277.488281 C 303.746094 277.738281 303.25 277.960938 302.746094 278.164062 C 302.238281 278.363281 301.722656 278.539062 301.199219 278.6875 C 286.972656 282.9375 272.511719 286.164062 257.824219 288.371094 C 243.140625 290.578125 228.371094 291.742188 213.519531 291.859375 Z M 213.519531 291.859375 " fill-opacity="1" fill-rule="nonzero"/><g clip-path="url(#dc20397638)"><path fill="#9d191d" d="M 304.933594 337.5 C 283.523438 337.5 255.070312 291.886719 255.070312 271.019531 C 255.070312 270.472656 255.097656 269.929688 255.152344 269.390625 C 255.203125 268.847656 255.285156 268.308594 255.390625 267.777344 C 255.496094 267.242188 255.628906 266.714844 255.785156 266.191406 C 255.945312 265.671875 256.128906 265.160156 256.335938 264.65625 C 256.542969 264.15625 256.777344 263.664062 257.035156 263.183594 C 257.289062 262.703125 257.570312 262.238281 257.871094 261.785156 C 258.175781 261.332031 258.5 260.894531 258.84375 260.472656 C 259.1875 260.054688 259.554688 259.652344 259.9375 259.265625 C 260.324219 258.878906 260.726562 258.515625 261.148438 258.171875 C 261.566406 257.824219 262.003906 257.5 262.457031 257.199219 C 262.910156 256.894531 263.375 256.617188 263.855469 256.359375 C 264.335938 256.101562 264.828125 255.871094 265.332031 255.664062 C 265.832031 255.453125 266.347656 255.269531 266.867188 255.113281 C 267.386719 254.957031 267.914062 254.824219 268.449219 254.71875 C 268.984375 254.609375 269.519531 254.53125 270.0625 254.476562 C 270.605469 254.425781 271.148438 254.398438 271.691406 254.398438 C 272.234375 254.398438 272.777344 254.425781 273.320312 254.476562 C 273.863281 254.53125 274.398438 254.609375 274.933594 254.71875 C 275.46875 254.824219 275.996094 254.957031 276.515625 255.113281 C 277.035156 255.269531 277.550781 255.453125 278.050781 255.664062 C 278.554688 255.871094 279.046875 256.101562 279.527344 256.359375 C 280.007812 256.617188 280.472656 256.894531 280.925781 257.199219 C 281.378906 257.5 281.816406 257.824219 282.234375 258.171875 C 282.65625 258.515625 283.058594 258.878906 283.445312 259.265625 C 283.828125 259.652344 284.195312 260.054688 284.539062 260.472656 C 284.882812 260.894531 285.207031 261.332031 285.511719 261.785156 C 285.8125 262.238281 286.09375 262.703125 286.347656 263.183594 C 286.605469 263.664062 286.839844 264.15625 287.046875 264.65625 C 287.253906 265.160156 287.4375 265.671875 287.597656 266.191406 C 287.753906 266.714844 287.886719 267.242188 287.992188 267.777344 C 288.097656 268.308594 288.179688 268.847656 288.230469 269.390625 C 288.285156 269.929688 288.3125 270.472656 288.3125 271.019531 C 288.3125 277.949219 300.867188 297.484375 308.171875 303.960938 C 322.359375 301.398438 338.464844 282.800781 347.914062 264.238281 C 357.1875 239.847656 353.621094 175.789062 324.320312 90.644531 C 316.636719 86.011719 308.558594 82.21875 300.085938 79.257812 C 291.617188 76.300781 282.933594 74.238281 274.035156 73.078125 L 262.191406 102.675781 C 261.992188 103.183594 261.765625 103.675781 261.511719 104.160156 C 261.261719 104.644531 260.988281 105.113281 260.691406 105.570312 C 260.394531 106.027344 260.074219 106.464844 259.734375 106.890625 C 259.394531 107.316406 259.035156 107.722656 258.65625 108.113281 C 258.273438 108.503906 257.875 108.871094 257.460938 109.222656 C 257.042969 109.574219 256.609375 109.902344 256.160156 110.210938 C 255.710938 110.519531 255.25 110.804688 254.773438 111.066406 C 254.296875 111.328125 253.808594 111.566406 253.308594 111.78125 C 252.804688 111.996094 252.296875 112.183594 251.777344 112.347656 C 251.257812 112.511719 250.734375 112.652344 250.199219 112.765625 C 249.667969 112.878906 249.132812 112.964844 248.589844 113.023438 C 248.046875 113.082031 247.507812 113.117188 246.960938 113.125 C 246.417969 113.128906 245.875 113.109375 245.332031 113.0625 C 244.789062 113.015625 244.25 112.941406 243.714844 112.84375 C 243.179688 112.742188 242.652344 112.617188 242.128906 112.464844 C 241.605469 112.3125 241.089844 112.136719 240.585938 111.933594 C 240.082031 111.734375 239.585938 111.507812 239.101562 111.253906 C 238.621094 111.003906 238.148438 110.730469 237.695312 110.433594 C 237.238281 110.136719 236.796875 109.816406 236.371094 109.476562 C 235.949219 109.136719 235.539062 108.777344 235.152344 108.398438 C 234.761719 108.015625 234.390625 107.617188 234.039062 107.203125 C 233.691406 106.785156 233.359375 106.351562 233.054688 105.902344 C 232.746094 105.453125 232.460938 104.992188 232.199219 104.515625 C 231.933594 104.039062 231.695312 103.550781 231.480469 103.050781 C 231.269531 102.546875 231.078125 102.039062 230.914062 101.519531 C 230.75 101 230.613281 100.476562 230.5 99.941406 C 230.386719 99.410156 230.300781 98.875 230.238281 98.332031 C 230.179688 97.789062 230.148438 97.25 230.140625 96.703125 C 230.132812 96.160156 230.152344 95.617188 230.199219 95.074219 C 230.246094 94.53125 230.320312 93.992188 230.421875 93.457031 C 230.519531 92.921875 230.644531 92.394531 230.796875 91.871094 C 230.949219 91.347656 231.125 90.832031 231.328125 90.328125 L 247.949219 48.777344 C 248.28125 47.941406 248.683594 47.136719 249.148438 46.367188 C 249.613281 45.597656 250.136719 44.867188 250.71875 44.183594 C 251.300781 43.496094 251.9375 42.863281 252.621094 42.28125 C 253.308594 41.699219 254.035156 41.175781 254.804688 40.710938 C 255.578125 40.246094 256.378906 39.847656 257.214844 39.515625 C 258.050781 39.179688 258.910156 38.917969 259.789062 38.722656 C 260.667969 38.527344 261.554688 38.40625 262.453125 38.355469 C 263.351562 38.304688 264.25 38.328125 265.144531 38.421875 C 272.476562 38.898438 279.75 39.851562 286.960938 41.277344 C 294.171875 42.699219 301.261719 44.585938 308.226562 46.9375 C 315.191406 49.285156 321.976562 52.074219 328.578125 55.304688 C 335.179688 58.539062 341.546875 62.183594 347.671875 66.246094 C 349.101562 67.238281 350.34375 68.425781 351.398438 69.808594 C 352.453125 71.195312 353.269531 72.707031 353.847656 74.347656 C 383.980469 159.734375 393.667969 239.355469 378.535156 277.191406 C 378.363281 277.617188 378.171875 278.023438 377.972656 278.457031 C 363.6875 307 336.992188 337.5 304.933594 337.5 Z M 310.058594 305.40625 Z M 310.058594 305.40625 " fill-opacity="1" fill-rule="nonzero"/></g><g clip-path="url(#b9edd890b6)"><path fill="#9d191d" d="M 124.898438 337.5 C 93.851562 337.5 68.164062 306.851562 54.496094 278.164062 C 54.304688 277.765625 54.128906 277.332031 53.972656 276.933594 C 39.609375 239.246094 48.84375 159.828125 77.480469 74.589844 C 78.027344 72.960938 78.808594 71.453125 79.824219 70.070312 C 80.835938 68.683594 82.035156 67.484375 83.421875 66.46875 C 89.164062 62.398438 95.160156 58.742188 101.402344 55.492188 C 107.644531 52.242188 114.082031 49.433594 120.707031 47.0625 C 127.335938 44.691406 134.09375 42.785156 140.980469 41.339844 C 147.871094 39.894531 154.824219 38.925781 161.847656 38.429688 C 162.742188 38.332031 163.640625 38.308594 164.542969 38.355469 C 165.441406 38.402344 166.332031 38.523438 167.214844 38.714844 C 168.09375 38.910156 168.957031 39.171875 169.792969 39.503906 C 170.632812 39.835938 171.4375 40.234375 172.210938 40.699219 C 172.984375 41.164062 173.714844 41.6875 174.402344 42.269531 C 175.089844 42.855469 175.726562 43.488281 176.3125 44.175781 C 176.898438 44.863281 177.421875 45.589844 177.886719 46.363281 C 178.355469 47.136719 178.753906 47.941406 179.089844 48.777344 L 195.710938 90.328125 C 195.914062 90.832031 196.089844 91.347656 196.242188 91.871094 C 196.394531 92.394531 196.519531 92.921875 196.617188 93.457031 C 196.71875 93.992188 196.792969 94.53125 196.839844 95.074219 C 196.886719 95.617188 196.90625 96.160156 196.898438 96.703125 C 196.890625 97.25 196.859375 97.789062 196.800781 98.332031 C 196.738281 98.875 196.652344 99.410156 196.539062 99.941406 C 196.429688 100.476562 196.289062 101 196.125 101.519531 C 195.960938 102.039062 195.769531 102.546875 195.558594 103.050781 C 195.34375 103.550781 195.105469 104.039062 194.839844 104.515625 C 194.578125 104.992188 194.292969 105.453125 193.984375 105.902344 C 193.679688 106.351562 193.347656 106.785156 193 107.203125 C 192.648438 107.617188 192.277344 108.015625 191.890625 108.398438 C 191.5 108.777344 191.09375 109.136719 190.667969 109.476562 C 190.242188 109.816406 189.800781 110.136719 189.34375 110.433594 C 188.890625 110.730469 188.417969 111.003906 187.9375 111.253906 C 187.453125 111.507812 186.957031 111.734375 186.453125 111.933594 C 185.949219 112.136719 185.433594 112.3125 184.910156 112.464844 C 184.386719 112.617188 183.859375 112.742188 183.324219 112.84375 C 182.789062 112.941406 182.25 113.015625 181.707031 113.0625 C 181.164062 113.109375 180.621094 113.128906 180.078125 113.125 C 179.535156 113.117188 178.992188 113.082031 178.449219 113.023438 C 177.910156 112.964844 177.371094 112.878906 176.839844 112.765625 C 176.304688 112.652344 175.78125 112.511719 175.261719 112.347656 C 174.742188 112.183594 174.234375 111.996094 173.734375 111.78125 C 173.230469 111.566406 172.742188 111.328125 172.265625 111.066406 C 171.789062 110.804688 171.328125 110.519531 170.878906 110.210938 C 170.429688 109.902344 169.996094 109.574219 169.578125 109.222656 C 169.164062 108.871094 168.765625 108.503906 168.382812 108.113281 C 168.003906 107.722656 167.644531 107.316406 167.304688 106.890625 C 166.964844 106.464844 166.644531 106.027344 166.347656 105.570312 C 166.050781 105.113281 165.777344 104.644531 165.527344 104.160156 C 165.273438 103.675781 165.046875 103.183594 164.847656 102.675781 L 153.039062 73.152344 C 144.878906 74.332031 136.941406 76.375 129.222656 79.277344 C 121.503906 82.179688 114.1875 85.875 107.273438 90.363281 C 79.300781 175.722656 75.925781 240.011719 84.835938 264.511719 C 93.609375 282.628906 108.304688 300.777344 121.25 303.808594 C 125.441406 299.128906 129.011719 294.015625 131.96875 288.46875 C 134.925781 282.925781 137.175781 277.105469 138.726562 271.019531 C 138.726562 270.472656 138.753906 269.929688 138.808594 269.390625 C 138.859375 268.847656 138.941406 268.308594 139.046875 267.777344 C 139.152344 267.242188 139.285156 266.714844 139.441406 266.191406 C 139.601562 265.671875 139.785156 265.160156 139.992188 264.65625 C 140.199219 264.15625 140.433594 263.664062 140.691406 263.183594 C 140.945312 262.703125 141.226562 262.238281 141.527344 261.785156 C 141.832031 261.332031 142.15625 260.894531 142.5 260.472656 C 142.84375 260.054688 143.210938 259.652344 143.59375 259.265625 C 143.980469 258.878906 144.382812 258.515625 144.804688 258.171875 C 145.226562 257.824219 145.660156 257.5 146.113281 257.199219 C 146.566406 256.894531 147.03125 256.617188 147.511719 256.359375 C 147.992188 256.101562 148.484375 255.871094 148.988281 255.664062 C 149.492188 255.453125 150.003906 255.269531 150.523438 255.113281 C 151.042969 254.957031 151.570312 254.824219 152.105469 254.71875 C 152.640625 254.609375 153.175781 254.53125 153.71875 254.476562 C 154.261719 254.425781 154.804688 254.398438 155.347656 254.398438 C 155.890625 254.398438 156.433594 254.425781 156.976562 254.476562 C 157.519531 254.53125 158.054688 254.609375 158.589844 254.71875 C 159.125 254.824219 159.652344 254.957031 160.171875 255.113281 C 160.695312 255.269531 161.207031 255.453125 161.707031 255.664062 C 162.210938 255.871094 162.703125 256.101562 163.183594 256.359375 C 163.664062 256.617188 164.128906 256.894531 164.582031 257.199219 C 165.035156 257.5 165.472656 257.824219 165.890625 258.171875 C 166.3125 258.515625 166.714844 258.878906 167.101562 259.265625 C 167.484375 259.652344 167.851562 260.054688 168.195312 260.472656 C 168.542969 260.894531 168.863281 261.332031 169.167969 261.785156 C 169.46875 262.238281 169.75 262.703125 170.007812 263.183594 C 170.261719 263.664062 170.496094 264.15625 170.703125 264.65625 C 170.910156 265.160156 171.09375 265.671875 171.253906 266.191406 C 171.410156 266.714844 171.542969 267.242188 171.648438 267.777344 C 171.753906 268.308594 171.835938 268.847656 171.886719 269.390625 C 171.941406 269.929688 171.96875 270.472656 171.96875 271.019531 C 171.238281 278.226562 169.613281 285.222656 167.097656 292.015625 C 164.578125 298.808594 161.246094 305.175781 157.101562 311.113281 C 140.28125 337.5 129.105469 337.5 124.898438 337.5 Z M 124.898438 337.5 " fill-opacity="1" fill-rule="nonzero"/></g></svg>