<svg xmlns="http://www.w3.org/2000/svg" xmlns:xlink="http://www.w3.org/1999/xlink" width="500" zoomAndPan="magnify" viewBox="0 0 375 374.999991" height="500" preserveAspectRatio="xMidYMid meet" version="1.0"><defs><clipPath id="d5e6528165"><path d="M 200 44 L 350 44 L 350 331.148438 L 200 331.148438 Z M 200 44 " clip-rule="nonzero"/></clipPath><clipPath id="cb153c3284"><path d="M 25 44 L 169 44 L 169 331.148438 L 25 331.148438 Z M 25 44 " clip-rule="nonzero"/></clipPath></defs><path fill="#9d191d" d="M 168.40625 187.898438 C 168.40625 188.941406 168.355469 189.980469 168.253906 191.015625 C 168.148438 192.054688 167.996094 193.082031 167.792969 194.105469 C 167.589844 195.128906 167.335938 196.136719 167.035156 197.136719 C 166.734375 198.132812 166.382812 199.113281 165.984375 200.074219 C 165.585938 201.039062 165.140625 201.980469 164.648438 202.898438 C 164.15625 203.816406 163.621094 204.710938 163.042969 205.578125 C 162.464844 206.445312 161.84375 207.28125 161.183594 208.085938 C 160.519531 208.890625 159.820312 209.664062 159.085938 210.398438 C 158.347656 211.136719 157.578125 211.835938 156.769531 212.496094 C 155.964844 213.160156 155.128906 213.777344 154.261719 214.355469 C 153.394531 214.9375 152.503906 215.472656 151.582031 215.964844 C 150.664062 216.453125 149.722656 216.898438 148.761719 217.296875 C 147.796875 217.695312 146.816406 218.046875 145.820312 218.351562 C 144.824219 218.652344 143.8125 218.90625 142.789062 219.109375 C 141.769531 219.3125 140.738281 219.464844 139.703125 219.566406 C 138.664062 219.667969 137.625 219.71875 136.582031 219.71875 C 135.539062 219.71875 134.5 219.667969 133.464844 219.566406 C 132.425781 219.464844 131.394531 219.3125 130.375 219.109375 C 129.351562 218.90625 128.34375 218.652344 127.34375 218.351562 C 126.347656 218.046875 125.367188 217.695312 124.40625 217.296875 C 123.441406 216.898438 122.5 216.453125 121.582031 215.964844 C 120.660156 215.472656 119.769531 214.9375 118.902344 214.355469 C 118.035156 213.777344 117.199219 213.160156 116.394531 212.496094 C 115.589844 211.835938 114.816406 211.136719 114.082031 210.398438 C 113.34375 209.664062 112.644531 208.890625 111.984375 208.085938 C 111.320312 207.28125 110.703125 206.445312 110.121094 205.578125 C 109.542969 204.710938 109.007812 203.816406 108.515625 202.898438 C 108.027344 201.980469 107.582031 201.039062 107.183594 200.074219 C 106.78125 199.113281 106.433594 198.132812 106.128906 197.136719 C 105.828125 196.136719 105.574219 195.128906 105.371094 194.105469 C 105.167969 193.082031 105.015625 192.054688 104.914062 191.015625 C 104.808594 189.980469 104.757812 188.941406 104.757812 187.898438 C 104.757812 186.855469 104.808594 185.816406 104.914062 184.777344 C 105.015625 183.742188 105.167969 182.710938 105.371094 181.6875 C 105.574219 180.667969 105.828125 179.65625 106.128906 178.660156 C 106.433594 177.664062 106.78125 176.683594 107.183594 175.71875 C 107.582031 174.757812 108.027344 173.816406 108.515625 172.894531 C 109.007812 171.976562 109.542969 171.085938 110.121094 170.21875 C 110.703125 169.351562 111.320312 168.515625 111.984375 167.710938 C 112.644531 166.902344 113.34375 166.132812 114.082031 165.394531 C 114.816406 164.65625 115.589844 163.960938 116.394531 163.296875 C 117.199219 162.636719 118.035156 162.015625 118.902344 161.4375 C 119.769531 160.859375 120.660156 160.324219 121.582031 159.832031 C 122.5 159.339844 123.441406 158.894531 124.40625 158.496094 C 125.367188 158.097656 126.347656 157.746094 127.34375 157.445312 C 128.34375 157.140625 129.351562 156.890625 130.375 156.6875 C 131.394531 156.484375 132.425781 156.328125 133.464844 156.226562 C 134.5 156.125 135.539062 156.074219 136.582031 156.074219 C 137.625 156.074219 138.664062 156.125 139.703125 156.226562 C 140.738281 156.328125 141.769531 156.484375 142.789062 156.6875 C 143.8125 156.890625 144.824219 157.140625 145.820312 157.445312 C 146.816406 157.746094 147.796875 158.097656 148.761719 158.496094 C 149.722656 158.894531 150.664062 159.339844 151.582031 159.832031 C 152.503906 160.324219 153.394531 160.859375 154.261719 161.4375 C 155.128906 162.015625 155.964844 162.636719 156.769531 163.296875 C 157.578125 163.960938 158.347656 164.65625 159.085938 165.394531 C 159.820312 166.132812 160.519531 166.902344 161.183594 167.710938 C 161.84375 168.515625 162.464844 169.351562 163.042969 170.21875 C 163.621094 171.085938 164.15625 171.976562 164.648438 172.894531 C 165.140625 173.816406 165.585938 174.757812 165.984375 175.71875 C 166.382812 176.683594 166.734375 177.664062 167.035156 178.660156 C 167.335938 179.65625 167.589844 180.667969 167.792969 181.6875 C 167.996094 182.710938 168.148438 183.742188 168.253906 184.777344 C 168.355469 185.816406 168.40625 186.855469 168.40625 187.898438 Z M 168.40625 187.898438 " fill-opacity="1" fill-rule="nonzero"/><path fill="#9d191d" d="M 263.875 187.898438 C 263.875 188.941406 263.824219 189.980469 263.722656 191.015625 C 263.621094 192.054688 263.464844 193.082031 263.261719 194.105469 C 263.058594 195.128906 262.808594 196.136719 262.503906 197.136719 C 262.203125 198.132812 261.851562 199.113281 261.453125 200.074219 C 261.054688 201.039062 260.609375 201.980469 260.117188 202.898438 C 259.625 203.816406 259.089844 204.710938 258.511719 205.578125 C 257.933594 206.445312 257.3125 207.28125 256.652344 208.085938 C 255.988281 208.890625 255.289062 209.664062 254.554688 210.398438 C 253.816406 211.136719 253.046875 211.835938 252.238281 212.496094 C 251.433594 213.160156 250.597656 213.777344 249.730469 214.355469 C 248.863281 214.9375 247.972656 215.472656 247.054688 215.964844 C 246.132812 216.453125 245.191406 216.898438 244.230469 217.296875 C 243.265625 217.695312 242.285156 218.046875 241.289062 218.351562 C 240.292969 218.652344 239.28125 218.90625 238.261719 219.109375 C 237.238281 219.3125 236.207031 219.464844 235.171875 219.566406 C 234.132812 219.667969 233.09375 219.71875 232.050781 219.71875 C 231.007812 219.71875 229.96875 219.667969 228.933594 219.566406 C 227.894531 219.464844 226.867188 219.3125 225.84375 219.109375 C 224.820312 218.90625 223.8125 218.652344 222.8125 218.351562 C 221.816406 218.046875 220.835938 217.695312 219.875 217.296875 C 218.910156 216.898438 217.96875 216.453125 217.050781 215.964844 C 216.132812 215.472656 215.238281 214.9375 214.371094 214.355469 C 213.503906 213.777344 212.667969 213.160156 211.863281 212.496094 C 211.058594 211.835938 210.285156 211.136719 209.550781 210.398438 C 208.8125 209.664062 208.113281 208.890625 207.453125 208.085938 C 206.789062 207.28125 206.171875 206.445312 205.589844 205.578125 C 205.011719 204.710938 204.476562 203.816406 203.984375 202.898438 C 203.496094 201.980469 203.050781 201.039062 202.652344 200.074219 C 202.253906 199.113281 201.902344 198.132812 201.597656 197.136719 C 201.296875 196.136719 201.042969 195.128906 200.839844 194.105469 C 200.636719 193.082031 200.484375 192.054688 200.382812 191.015625 C 200.28125 189.980469 200.230469 188.941406 200.230469 187.898438 C 200.230469 186.855469 200.28125 185.816406 200.382812 184.777344 C 200.484375 183.742188 200.636719 182.710938 200.839844 181.6875 C 201.042969 180.667969 201.296875 179.65625 201.597656 178.660156 C 201.902344 177.664062 202.253906 176.683594 202.652344 175.71875 C 203.050781 174.757812 203.496094 173.816406 203.984375 172.894531 C 204.476562 171.976562 205.011719 171.085938 205.589844 170.21875 C 206.171875 169.351562 206.789062 168.515625 207.453125 167.710938 C 208.113281 166.902344 208.8125 166.132812 209.550781 165.394531 C 210.285156 164.65625 211.058594 163.960938 211.863281 163.296875 C 212.667969 162.636719 213.503906 162.015625 214.371094 161.4375 C 215.238281 160.859375 216.132812 160.324219 217.050781 159.832031 C 217.96875 159.339844 218.910156 158.894531 219.875 158.496094 C 220.835938 158.097656 221.816406 157.746094 222.8125 157.445312 C 223.8125 157.140625 224.820312 156.890625 225.84375 156.6875 C 226.867188 156.484375 227.894531 156.328125 228.933594 156.226562 C 229.96875 156.125 231.007812 156.074219 232.050781 156.074219 C 233.09375 156.074219 234.132812 156.125 235.171875 156.226562 C 236.207031 156.328125 237.238281 156.484375 238.261719 156.6875 C 239.28125 156.890625 240.292969 157.140625 241.289062 157.445312 C 242.285156 157.746094 243.265625 158.097656 244.230469 158.496094 C 245.191406 158.894531 246.132812 159.339844 247.054688 159.832031 C 247.972656 160.324219 248.863281 160.859375 249.730469 161.4375 C 250.597656 162.015625 251.433594 162.636719 252.238281 163.296875 C 253.046875 163.960938 253.816406 164.65625 254.554688 165.394531 C 255.289062 166.132812 255.988281 166.902344 256.652344 167.710938 C 257.3125 168.515625 257.933594 169.351562 258.511719 170.21875 C 259.089844 171.085938 259.625 171.976562 260.117188 172.894531 C 260.609375 173.816406 261.054688 174.757812 261.453125 175.71875 C 261.851562 176.683594 262.203125 177.664062 262.503906 178.660156 C 262.808594 179.65625 263.058594 180.667969 263.261719 181.6875 C 263.464844 182.710938 263.621094 183.742188 263.722656 184.777344 C 263.824219 185.816406 263.875 186.855469 263.875 187.898438 Z M 263.875 187.898438 " fill-opacity="1" fill-rule="nonzero"/><path fill="#9d191d" d="M 255.917969 132.207031 C 254.429688 132.210938 252.972656 132.007812 251.542969 131.59375 C 198.757812 116.480469 169.863281 116.480469 117.089844 131.59375 C 116.589844 131.738281 116.082031 131.855469 115.570312 131.949219 C 115.058594 132.042969 114.542969 132.113281 114.023438 132.152344 C 113.503906 132.195312 112.984375 132.214844 112.460938 132.207031 C 111.941406 132.199219 111.421875 132.164062 110.902344 132.105469 C 110.386719 132.046875 109.871094 131.960938 109.363281 131.851562 C 108.851562 131.742188 108.351562 131.605469 107.855469 131.445312 C 107.359375 131.289062 106.871094 131.105469 106.390625 130.898438 C 105.914062 130.691406 105.445312 130.460938 104.992188 130.207031 C 104.535156 129.953125 104.09375 129.679688 103.664062 129.382812 C 103.234375 129.085938 102.824219 128.769531 102.425781 128.433594 C 102.027344 128.097656 101.648438 127.742188 101.285156 127.367188 C 100.921875 126.992188 100.578125 126.601562 100.253906 126.191406 C 99.929688 125.785156 99.628906 125.363281 99.34375 124.925781 C 99.0625 124.484375 98.800781 124.035156 98.5625 123.570312 C 98.324219 123.109375 98.109375 122.632812 97.917969 122.148438 C 97.726562 121.664062 97.558594 121.171875 97.417969 120.671875 C 97.273438 120.171875 97.15625 119.664062 97.0625 119.152344 C 96.96875 118.636719 96.898438 118.121094 96.855469 117.601562 C 96.8125 117.082031 96.796875 116.5625 96.804688 116.042969 C 96.8125 115.519531 96.847656 115 96.90625 114.484375 C 96.964844 113.964844 97.050781 113.453125 97.160156 112.941406 C 97.269531 112.433594 97.40625 111.929688 97.5625 111.433594 C 97.722656 110.9375 97.90625 110.449219 98.113281 109.972656 C 98.320312 109.496094 98.550781 109.027344 98.804688 108.570312 C 99.054688 108.117188 99.332031 107.675781 99.628906 107.246094 C 99.921875 106.816406 100.242188 106.402344 100.578125 106.007812 C 100.914062 105.609375 101.269531 105.226562 101.644531 104.867188 C 102.019531 104.503906 102.410156 104.160156 102.816406 103.835938 C 103.226562 103.511719 103.648438 103.207031 104.085938 102.925781 C 104.523438 102.644531 104.976562 102.382812 105.4375 102.144531 C 105.902344 101.90625 106.375 101.691406 106.859375 101.5 C 107.34375 101.308594 107.839844 101.140625 108.339844 100.996094 C 166.558594 84.351562 202.058594 84.351562 260.292969 100.996094 C 261.210938 101.257812 262.09375 101.597656 262.949219 102.019531 C 263.800781 102.441406 264.613281 102.933594 265.378906 103.5 C 266.144531 104.0625 266.851562 104.691406 267.503906 105.386719 C 268.15625 106.078125 268.742188 106.824219 269.261719 107.621094 C 269.78125 108.417969 270.222656 109.257812 270.59375 110.132812 C 270.960938 111.011719 271.25 111.914062 271.453125 112.84375 C 271.660156 113.773438 271.785156 114.714844 271.820312 115.664062 C 271.859375 116.617188 271.8125 117.5625 271.679688 118.503906 C 271.546875 119.449219 271.332031 120.371094 271.035156 121.273438 C 270.738281 122.179688 270.359375 123.046875 269.90625 123.886719 C 269.453125 124.722656 268.929688 125.511719 268.332031 126.253906 C 267.738281 126.996094 267.078125 127.679688 266.363281 128.304688 C 265.644531 128.929688 264.875 129.484375 264.058594 129.96875 C 263.238281 130.457031 262.386719 130.867188 261.492188 131.199219 C 260.601562 131.53125 259.6875 131.785156 258.75 131.953125 C 257.816406 132.121094 256.871094 132.207031 255.917969 132.207031 Z M 255.917969 132.207031 " fill-opacity="1" fill-rule="nonzero"/><path fill="#9d191d" d="M 184.316406 287.40625 C 170.101562 287.292969 155.964844 286.179688 141.910156 284.066406 C 127.851562 281.957031 114.011719 278.867188 100.390625 274.796875 C 99.890625 274.65625 99.398438 274.488281 98.914062 274.296875 C 98.429688 274.105469 97.953125 273.890625 97.492188 273.652344 C 97.027344 273.414062 96.578125 273.152344 96.140625 272.871094 C 95.703125 272.585938 95.277344 272.285156 94.871094 271.960938 C 94.460938 271.636719 94.070312 271.292969 93.695312 270.929688 C 93.320312 270.566406 92.964844 270.1875 92.628906 269.789062 C 92.292969 269.390625 91.976562 268.976562 91.679688 268.550781 C 91.382812 268.121094 91.109375 267.679688 90.855469 267.222656 C 90.601562 266.769531 90.371094 266.300781 90.164062 265.824219 C 89.957031 265.34375 89.773438 264.855469 89.617188 264.359375 C 89.457031 263.863281 89.320312 263.363281 89.210938 262.851562 C 89.101562 262.34375 89.019531 261.828125 88.957031 261.3125 C 88.898438 260.792969 88.867188 260.273438 88.855469 259.753906 C 88.847656 259.230469 88.867188 258.710938 88.910156 258.191406 C 88.953125 257.671875 89.019531 257.15625 89.113281 256.644531 C 89.207031 256.132812 89.324219 255.625 89.46875 255.125 C 89.613281 254.621094 89.777344 254.128906 89.972656 253.644531 C 90.164062 253.160156 90.378906 252.6875 90.617188 252.222656 C 90.855469 251.757812 91.113281 251.308594 91.398438 250.871094 C 91.679688 250.433594 91.984375 250.011719 92.308594 249.601562 C 92.632812 249.195312 92.976562 248.804688 93.335938 248.429688 C 93.699219 248.054688 94.082031 247.699219 94.476562 247.363281 C 94.875 247.023438 95.289062 246.707031 95.71875 246.410156 C 96.144531 246.113281 96.585938 245.839844 97.042969 245.585938 C 97.5 245.335938 97.964844 245.105469 98.445312 244.898438 C 98.921875 244.691406 99.410156 244.507812 99.90625 244.347656 C 100.402344 244.1875 100.90625 244.054688 101.414062 243.945312 C 101.925781 243.835938 102.4375 243.75 102.957031 243.691406 C 103.472656 243.632812 103.992188 243.597656 104.511719 243.589844 C 105.035156 243.582031 105.554688 243.597656 106.074219 243.640625 C 106.59375 243.683594 107.109375 243.75 107.621094 243.84375 C 108.136719 243.9375 108.640625 244.058594 109.144531 244.199219 C 115.222656 246.070312 121.367188 247.710938 127.570312 249.121094 C 133.773438 250.53125 140.019531 251.710938 146.3125 252.652344 C 152.605469 253.597656 158.921875 254.308594 165.265625 254.78125 C 171.609375 255.257812 177.964844 255.492188 184.324219 255.492188 C 190.6875 255.492188 197.039062 255.257812 203.382812 254.78125 C 209.730469 254.308594 216.046875 253.597656 222.335938 252.652344 C 228.628906 251.710938 234.875 250.53125 241.078125 249.121094 C 247.285156 247.710938 253.425781 246.070312 259.507812 244.199219 C 260.007812 244.058594 260.515625 243.9375 261.027344 243.847656 C 261.539062 243.753906 262.054688 243.683594 262.574219 243.640625 C 263.09375 243.597656 263.613281 243.582031 264.136719 243.589844 C 264.65625 243.597656 265.175781 243.632812 265.695312 243.691406 C 266.210938 243.753906 266.726562 243.835938 267.234375 243.945312 C 267.742188 244.054688 268.246094 244.191406 268.742188 244.351562 C 269.238281 244.507812 269.726562 244.691406 270.203125 244.898438 C 270.679688 245.105469 271.148438 245.335938 271.605469 245.589844 C 272.058594 245.84375 272.5 246.117188 272.929688 246.414062 C 273.359375 246.710938 273.769531 247.027344 274.167969 247.363281 C 274.566406 247.703125 274.945312 248.058594 275.308594 248.429688 C 275.671875 248.804688 276.015625 249.195312 276.339844 249.605469 C 276.664062 250.011719 276.964844 250.4375 277.246094 250.875 C 277.53125 251.3125 277.789062 251.761719 278.027344 252.226562 C 278.265625 252.6875 278.480469 253.164062 278.675781 253.648438 C 278.867188 254.132812 279.03125 254.625 279.175781 255.125 C 279.320312 255.625 279.4375 256.132812 279.53125 256.644531 C 279.625 257.15625 279.691406 257.675781 279.734375 258.191406 C 279.777344 258.710938 279.796875 259.234375 279.789062 259.753906 C 279.78125 260.273438 279.746094 260.792969 279.6875 261.3125 C 279.628906 261.828125 279.542969 262.34375 279.433594 262.851562 C 279.324219 263.363281 279.1875 263.863281 279.03125 264.359375 C 278.871094 264.855469 278.6875 265.34375 278.480469 265.820312 C 278.273438 266.300781 278.042969 266.765625 277.789062 267.222656 C 277.539062 267.679688 277.261719 268.121094 276.96875 268.546875 C 276.671875 268.976562 276.355469 269.390625 276.015625 269.789062 C 275.679688 270.183594 275.324219 270.566406 274.949219 270.929688 C 274.578125 271.289062 274.1875 271.632812 273.777344 271.957031 C 273.371094 272.28125 272.945312 272.585938 272.507812 272.867188 C 272.070312 273.152344 271.621094 273.410156 271.15625 273.648438 C 270.695312 273.886719 270.222656 274.105469 269.738281 274.296875 C 269.25 274.488281 268.757812 274.65625 268.257812 274.796875 C 254.636719 278.867188 240.792969 281.957031 226.734375 284.070312 C 212.671875 286.179688 198.535156 287.292969 184.316406 287.40625 Z M 184.316406 287.40625 " fill-opacity="1" fill-rule="nonzero"/><g clip-path="url(#d5e6528165)"><path fill="#9d191d" d="M 271.832031 331.101562 C 251.335938 331.101562 224.097656 287.433594 224.097656 267.457031 C 224.097656 266.933594 224.121094 266.414062 224.171875 265.894531 C 224.222656 265.375 224.300781 264.863281 224.402344 264.351562 C 224.503906 263.839844 224.628906 263.335938 224.78125 262.835938 C 224.933594 262.335938 225.109375 261.847656 225.308594 261.367188 C 225.507812 260.882812 225.730469 260.414062 225.976562 259.953125 C 226.21875 259.496094 226.488281 259.046875 226.777344 258.613281 C 227.066406 258.183594 227.378906 257.765625 227.707031 257.359375 C 228.039062 256.957031 228.386719 256.574219 228.757812 256.203125 C 229.125 255.835938 229.511719 255.484375 229.914062 255.15625 C 230.316406 254.824219 230.734375 254.515625 231.167969 254.226562 C 231.601562 253.9375 232.046875 253.667969 232.507812 253.421875 C 232.964844 253.175781 233.4375 252.953125 233.917969 252.753906 C 234.398438 252.554688 234.890625 252.378906 235.386719 252.230469 C 235.886719 252.078125 236.390625 251.949219 236.902344 251.847656 C 237.414062 251.746094 237.929688 251.671875 238.449219 251.621094 C 238.964844 251.570312 239.484375 251.542969 240.007812 251.542969 C 240.527344 251.542969 241.046875 251.570312 241.566406 251.621094 C 242.085938 251.671875 242.601562 251.746094 243.113281 251.847656 C 243.621094 251.949219 244.128906 252.078125 244.625 252.230469 C 245.125 252.378906 245.613281 252.554688 246.097656 252.753906 C 246.578125 252.953125 247.046875 253.175781 247.507812 253.421875 C 247.96875 253.667969 248.414062 253.9375 248.847656 254.226562 C 249.28125 254.515625 249.699219 254.824219 250.101562 255.15625 C 250.503906 255.484375 250.890625 255.835938 251.257812 256.203125 C 251.628906 256.574219 251.976562 256.957031 252.308594 257.359375 C 252.636719 257.765625 252.949219 258.183594 253.238281 258.613281 C 253.527344 259.046875 253.792969 259.496094 254.039062 259.953125 C 254.285156 260.414062 254.507812 260.882812 254.707031 261.367188 C 254.90625 261.847656 255.082031 262.335938 255.234375 262.835938 C 255.386719 263.335938 255.511719 263.839844 255.613281 264.351562 C 255.714844 264.863281 255.792969 265.375 255.84375 265.894531 C 255.894531 266.414062 255.917969 266.933594 255.917969 267.457031 C 255.917969 274.089844 267.941406 292.792969 274.933594 298.992188 C 288.515625 296.542969 303.933594 278.738281 312.976562 260.964844 C 321.855469 237.613281 318.441406 176.289062 290.390625 94.773438 C 283.035156 90.339844 275.300781 86.707031 267.191406 83.875 C 259.082031 81.042969 250.769531 79.070312 242.25 77.957031 L 230.914062 106.296875 C 230.71875 106.777344 230.503906 107.253906 230.261719 107.714844 C 230.023438 108.175781 229.761719 108.628906 229.476562 109.0625 C 229.191406 109.5 228.886719 109.921875 228.5625 110.328125 C 228.234375 110.734375 227.890625 111.125 227.527344 111.5 C 227.164062 111.871094 226.78125 112.226562 226.382812 112.5625 C 225.984375 112.898438 225.570312 113.210938 225.140625 113.507812 C 224.710938 113.800781 224.265625 114.074219 223.808594 114.324219 C 223.355469 114.578125 222.886719 114.804688 222.40625 115.011719 C 221.929688 115.214844 221.441406 115.398438 220.941406 115.554688 C 220.445312 115.710938 219.941406 115.84375 219.433594 115.953125 C 218.921875 116.058594 218.410156 116.140625 217.890625 116.199219 C 217.375 116.257812 216.855469 116.289062 216.332031 116.296875 C 215.8125 116.300781 215.292969 116.28125 214.773438 116.238281 C 214.253906 116.191406 213.738281 116.121094 213.226562 116.027344 C 212.710938 115.933594 212.207031 115.8125 211.707031 115.667969 C 211.203125 115.519531 210.710938 115.351562 210.230469 115.15625 C 209.746094 114.964844 209.273438 114.746094 208.808594 114.507812 C 208.347656 114.265625 207.898438 114.003906 207.460938 113.722656 C 207.023438 113.4375 206.601562 113.132812 206.195312 112.804688 C 205.789062 112.480469 205.398438 112.136719 205.023438 111.769531 C 204.652344 111.40625 204.296875 111.027344 203.960938 110.625 C 203.628906 110.226562 203.3125 109.8125 203.015625 109.382812 C 202.722656 108.953125 202.449219 108.511719 202.199219 108.054688 C 201.945312 107.597656 201.71875 107.128906 201.511719 106.652344 C 201.308594 106.171875 201.128906 105.683594 200.96875 105.1875 C 200.8125 104.691406 200.679688 104.1875 200.570312 103.675781 C 200.464844 103.167969 200.382812 102.652344 200.324219 102.136719 C 200.265625 101.617188 200.234375 101.097656 200.230469 100.578125 C 200.222656 100.054688 200.242188 99.535156 200.285156 99.015625 C 200.332031 98.496094 200.402344 97.980469 200.496094 97.46875 C 200.59375 96.957031 200.710938 96.449219 200.859375 95.949219 C 201.003906 95.449219 201.171875 94.957031 201.367188 94.472656 L 217.277344 54.695312 C 217.597656 53.894531 217.980469 53.125 218.425781 52.386719 C 218.871094 51.648438 219.371094 50.953125 219.929688 50.296875 C 220.488281 49.640625 221.09375 49.035156 221.75 48.476562 C 222.40625 47.917969 223.105469 47.417969 223.84375 46.972656 C 224.582031 46.527344 225.351562 46.144531 226.148438 45.828125 C 226.949219 45.507812 227.769531 45.253906 228.613281 45.066406 C 229.453125 44.882812 230.304688 44.765625 231.164062 44.714844 C 232.023438 44.667969 232.882812 44.691406 233.738281 44.78125 C 240.761719 45.238281 247.722656 46.148438 254.625 47.511719 C 261.53125 48.878906 268.316406 50.683594 274.984375 52.929688 C 281.652344 55.179688 288.148438 57.851562 294.46875 60.945312 C 300.789062 64.039062 306.882812 67.53125 312.746094 71.417969 C 314.113281 72.367188 315.304688 73.503906 316.3125 74.828125 C 317.324219 76.15625 318.105469 77.601562 318.65625 79.175781 C 347.503906 160.917969 356.78125 237.144531 342.292969 273.367188 C 342.128906 273.773438 341.945312 274.160156 341.753906 274.574219 C 328.078125 301.902344 302.523438 331.101562 271.832031 331.101562 Z M 276.738281 300.375 Z M 276.738281 300.375 " fill-opacity="1" fill-rule="nonzero"/></g><g clip-path="url(#cb153c3284)"><path fill="#9d191d" d="M 99.476562 331.101562 C 69.753906 331.101562 45.164062 301.761719 32.074219 274.296875 C 31.894531 273.914062 31.726562 273.5 31.574219 273.121094 C 17.828125 237.039062 26.664062 161.007812 54.082031 79.40625 C 54.605469 77.847656 55.351562 76.402344 56.324219 75.078125 C 57.292969 73.75 58.441406 72.601562 59.769531 71.632812 C 65.265625 67.734375 71.003906 64.234375 76.980469 61.121094 C 82.957031 58.011719 89.121094 55.320312 95.464844 53.050781 C 101.808594 50.785156 108.28125 48.957031 114.875 47.574219 C 121.46875 46.191406 128.125 45.261719 134.847656 44.789062 C 135.707031 44.695312 136.566406 44.671875 137.429688 44.714844 C 138.289062 44.761719 139.144531 44.878906 139.988281 45.0625 C 140.832031 45.246094 141.652344 45.5 142.457031 45.816406 C 143.257812 46.136719 144.03125 46.515625 144.769531 46.960938 C 145.511719 47.40625 146.210938 47.90625 146.867188 48.464844 C 147.527344 49.023438 148.136719 49.632812 148.695312 50.289062 C 149.257812 50.945312 149.757812 51.644531 150.207031 52.382812 C 150.652344 53.121094 151.035156 53.890625 151.355469 54.695312 L 167.269531 94.472656 C 167.460938 94.957031 167.632812 95.449219 167.777344 95.949219 C 167.921875 96.449219 168.042969 96.957031 168.136719 97.46875 C 168.234375 97.980469 168.304688 98.496094 168.347656 99.015625 C 168.390625 99.535156 168.410156 100.054688 168.40625 100.578125 C 168.398438 101.097656 168.367188 101.617188 168.308594 102.136719 C 168.253906 102.652344 168.171875 103.167969 168.0625 103.675781 C 167.953125 104.1875 167.820312 104.691406 167.664062 105.1875 C 167.507812 105.683594 167.324219 106.171875 167.121094 106.652344 C 166.914062 107.128906 166.6875 107.597656 166.4375 108.054688 C 166.183594 108.511719 165.910156 108.953125 165.617188 109.382812 C 165.320312 109.8125 165.007812 110.226562 164.671875 110.625 C 164.335938 111.027344 163.980469 111.40625 163.609375 111.769531 C 163.234375 112.136719 162.847656 112.480469 162.4375 112.804688 C 162.03125 113.132812 161.609375 113.4375 161.171875 113.722656 C 160.738281 114.003906 160.289062 114.265625 159.824219 114.507812 C 159.363281 114.746094 158.890625 114.964844 158.40625 115.15625 C 157.921875 115.351562 157.429688 115.519531 156.929688 115.667969 C 156.429688 115.8125 155.921875 115.933594 155.410156 116.027344 C 154.898438 116.121094 154.382812 116.191406 153.863281 116.238281 C 153.34375 116.28125 152.824219 116.300781 152.300781 116.296875 C 151.78125 116.289062 151.261719 116.257812 150.742188 116.199219 C 150.226562 116.140625 149.710938 116.058594 149.199219 115.953125 C 148.691406 115.84375 148.1875 115.710938 147.691406 115.554688 C 147.195312 115.398438 146.707031 115.214844 146.226562 115.011719 C 145.75 114.804688 145.28125 114.578125 144.824219 114.324219 C 144.367188 114.074219 143.925781 113.800781 143.492188 113.507812 C 143.0625 113.210938 142.648438 112.898438 142.25 112.5625 C 141.851562 112.226562 141.472656 111.871094 141.105469 111.5 C 140.742188 111.125 140.398438 110.734375 140.070312 110.328125 C 139.746094 109.921875 139.441406 109.5 139.15625 109.0625 C 138.871094 108.628906 138.609375 108.175781 138.371094 107.714844 C 138.128906 107.253906 137.914062 106.777344 137.71875 106.296875 L 126.414062 78.027344 C 118.601562 79.160156 111.003906 81.113281 103.617188 83.890625 C 96.226562 86.671875 89.222656 90.207031 82.601562 94.503906 C 55.824219 176.226562 52.59375 237.773438 61.121094 261.226562 C 69.523438 278.570312 83.589844 295.945312 95.984375 298.847656 C 99.996094 294.367188 103.414062 289.46875 106.246094 284.160156 C 109.074219 278.851562 111.230469 273.285156 112.714844 267.457031 C 112.714844 266.933594 112.742188 266.414062 112.792969 265.894531 C 112.84375 265.375 112.917969 264.863281 113.019531 264.351562 C 113.121094 263.839844 113.25 263.335938 113.398438 262.835938 C 113.550781 262.335938 113.726562 261.847656 113.925781 261.367188 C 114.125 260.882812 114.347656 260.414062 114.59375 259.953125 C 114.839844 259.496094 115.105469 259.046875 115.398438 258.613281 C 115.6875 258.183594 115.996094 257.765625 116.328125 257.359375 C 116.65625 256.957031 117.007812 256.574219 117.375 256.203125 C 117.742188 255.835938 118.128906 255.484375 118.53125 255.15625 C 118.933594 254.824219 119.351562 254.515625 119.785156 254.226562 C 120.21875 253.9375 120.667969 253.667969 121.125 253.421875 C 121.585938 253.175781 122.054688 252.953125 122.539062 252.753906 C 123.019531 252.554688 123.507812 252.378906 124.007812 252.230469 C 124.507812 252.078125 125.011719 251.949219 125.523438 251.847656 C 126.035156 251.746094 126.546875 251.671875 127.066406 251.621094 C 127.585938 251.570312 128.105469 251.542969 128.625 251.542969 C 129.148438 251.542969 129.667969 251.570312 130.1875 251.621094 C 130.703125 251.671875 131.21875 251.746094 131.730469 251.847656 C 132.242188 251.949219 132.746094 252.078125 133.246094 252.230469 C 133.746094 252.378906 134.234375 252.554688 134.714844 252.753906 C 135.195312 252.953125 135.667969 253.175781 136.128906 253.421875 C 136.585938 253.667969 137.035156 253.9375 137.464844 254.226562 C 137.898438 254.515625 138.316406 254.824219 138.722656 255.15625 C 139.125 255.484375 139.507812 255.835938 139.878906 256.203125 C 140.246094 256.574219 140.597656 256.957031 140.925781 257.359375 C 141.257812 257.765625 141.566406 258.183594 141.855469 258.613281 C 142.144531 259.046875 142.414062 259.496094 142.660156 259.953125 C 142.90625 260.414062 143.128906 260.882812 143.328125 261.367188 C 143.527344 261.847656 143.703125 262.335938 143.851562 262.835938 C 144.003906 263.335938 144.128906 263.839844 144.234375 264.351562 C 144.335938 264.863281 144.410156 265.375 144.460938 265.894531 C 144.511719 266.414062 144.539062 266.933594 144.539062 267.457031 C 143.839844 274.355469 142.285156 281.054688 139.875 287.558594 C 137.464844 294.058594 134.273438 300.15625 130.304688 305.839844 C 114.203125 331.101562 103.503906 331.101562 99.476562 331.101562 Z M 99.476562 331.101562 " fill-opacity="1" fill-rule="nonzero"/></g></svg>