<svg xmlns="http://www.w3.org/2000/svg" xmlns:xlink="http://www.w3.org/1999/xlink" width="500" zoomAndPan="magnify" viewBox="0 0 375 374.999991" height="500" preserveAspectRatio="xMidYMid meet" version="1.0"><defs><clipPath id="4fe82aabee"><path d="M 68 130 L 322 130 L 322 229 L 68 229 Z M 68 130 " clip-rule="nonzero"/></clipPath><clipPath id="a336c1a530"><path d="M 45.742188 150.660156 L 279.226562 73.191406 L 329.296875 224.105469 L 95.8125 301.570312 Z M 45.742188 150.660156 " clip-rule="nonzero"/></clipPath><clipPath id="9c742f9f30"><path d="M 279.117188 73.230469 L 45.632812 150.695312 L 95.703125 301.605469 L 329.1875 224.140625 Z M 279.117188 73.230469 " clip-rule="nonzero"/></clipPath></defs><g clip-path="url(#4fe82aabee)"><g clip-path="url(#a336c1a530)"><g clip-path="url(#9c742f9f30)"><path fill="#9d191d" d="M 95.199219 147.757812 C 97.203125 139.664062 98.046875 133.390625 92.144531 137.265625 C 90.214844 138.605469 87.667969 142.039062 84.5625 148.824219 C 81.496094 155.609375 77.804688 165.722656 74.449219 180.128906 C 68.90625 205.078125 67.445312 216.015625 68.925781 217.621094 C 69.953125 218.609375 73.484375 218.484375 82.257812 216.925781 C 90.972656 215.539062 105.164062 212.191406 126.375 210.46875 C 132.445312 209.890625 144.3125 208.691406 146.460938 205.136719 C 148.367188 202.054688 141.59375 200.402344 134.472656 200.429688 C 112.765625 200.601562 96.699219 205.117188 93.886719 204.816406 C 92.175781 204.738281 96.6875 201.710938 102.070312 196.589844 C 112.414062 186.664062 123.75 177.3125 134.890625 169.664062 C 151.5625 158.414062 169.503906 150.054688 187.660156 145.683594 C 205.773438 141.21875 223.835938 140.714844 239.761719 143.671875 C 255.761719 146.621094 269.257812 153.109375 279.519531 160.90625 C 289.8125 168.699219 296.929688 177.363281 301.597656 184.511719 C 309.296875 196.8125 311.925781 206.808594 313.117188 213.292969 C 314.257812 219.84375 314.328125 223.089844 314.386719 223.792969 C 314.632812 225.980469 315.800781 228.40625 317.277344 228.105469 C 318.015625 227.945312 318.839844 227.085938 319.664062 225.058594 C 320.070312 224.042969 320.515625 222.734375 320.882812 221.074219 C 321.140625 219.414062 321.359375 217.410156 321.511719 214.988281 C 321.976562 204.648438 318.277344 191.238281 310.671875 178.984375 C 301.984375 164.734375 288.871094 152.464844 273.765625 144.136719 C 258.5625 135.683594 241.613281 132.0625 225.945312 131.140625 C 205.320312 130.066406 186.441406 133.882812 170.226562 139.542969 C 153.925781 145.210938 140.363281 153.058594 128.929688 160.695312 C 114.300781 170.863281 104.289062 180.03125 97.335938 186.378906 C 90.449219 192.804688 86.628906 196.511719 85.453125 197.167969 C 82.5 198.855469 86.359375 183.605469 89.394531 169.699219 C 90.195312 165.796875 93.105469 155.84375 95.199219 147.757812 Z M 95.199219 147.757812 " fill-opacity="1" fill-rule="nonzero"/></g></g></g></svg>