<svg xmlns="http://www.w3.org/2000/svg" xmlns:xlink="http://www.w3.org/1999/xlink" width="1200" zoomAndPan="magnify" viewBox="0 0 900 374.999991" height="500" preserveAspectRatio="xMidYMid meet" version="1.0"><defs><clipPath id="f99c67c879"><path d="M 0 89 L 899.992188 89 L 899.992188 375 L 0 375 Z M 0 89 " clip-rule="nonzero"/></clipPath><clipPath id="db51e23cd9"><path d="M 45 232 L 899.992188 232 L 899.992188 375 L 45 375 Z M 45 232 " clip-rule="nonzero"/></clipPath></defs><g clip-path="url(#f99c67c879)"><path fill="#000000" d="M -66.667969 374.964844 L 899.984375 89.769531 L 899.984375 169.441406 Z M -66.667969 374.964844 " fill-opacity="1" fill-rule="nonzero"/></g><g clip-path="url(#db51e23cd9)"><path fill="#000000" d="M 899.984375 232.011719 L 899.984375 374.964844 L 45.777344 374.964844 Z M 899.984375 232.011719 " fill-opacity="1" fill-rule="nonzero"/></g><path fill="#000000" d="M 476.601562 -242.992188 L 744.339844 -242.992188 L -88.605469 198.769531 L -88.605469 145.964844 Z M 476.601562 -242.992188 " fill-opacity="1" fill-rule="nonzero"/><path fill="#000000" d="M -88.605469 108.03125 L -88.605469 -242.992188 L 380.21875 -242.992188 Z M -88.605469 108.03125 " fill-opacity="1" fill-rule="nonzero"/><path fill="#000000" d="M 91.179688 576.195312 L 1057.832031 291 L 1057.832031 370.671875 Z M 91.179688 576.195312 " fill-opacity="1" fill-rule="nonzero"/></svg>