<svg width="385" height="128" viewBox="0 0 385 128" fill="none" xmlns="http://www.w3.org/2000/svg">
<g clip-path="url(#clip0_738_2473)">
<path d="M0 99H385V123C385 125.761 382.761 128 380 128H5C2.23858 128 0 125.761 0 123V99Z" fill="#3B3B3B"/>
<rect x="169" y="160.619" width="258.213" height="201.958" transform="rotate(-60 169 160.619)" fill="#525151"/>
<path d="M9.466 112.372H14.562C16.844 112.372 18.076 113.226 18.076 114.934C18.076 116.852 16.914 118 14.058 118H5.336L7.198 115.592H14.282C14.968 115.592 15.276 115.396 15.276 114.906C15.276 114.43 14.968 114.234 14.282 114.234H9.186C6.778 114.234 5.672 113.156 5.672 111.546C5.672 109.782 6.848 108.634 9.69 108.634H17.824L15.962 111.07H9.466C8.794 111.07 8.472 111.238 8.472 111.714C8.472 112.19 8.794 112.372 9.466 112.372ZM22.2745 115.592H30.2405L28.3785 118H19.3625V108.634H30.2125L28.3365 111.07H22.2745V112.19H29.6945L28.0285 114.318H22.2745V115.592ZM34.8137 112.372H39.9097C42.1917 112.372 43.4237 113.226 43.4237 114.934C43.4237 116.852 42.2617 118 39.4057 118H30.6837L32.5457 115.592H39.6297C40.3157 115.592 40.6237 115.396 40.6237 114.906C40.6237 114.43 40.3157 114.234 39.6297 114.234H34.5337C32.1257 114.234 31.0197 113.156 31.0197 111.546C31.0197 109.782 32.1957 108.634 35.0377 108.634H43.1717L41.3097 111.07H34.8137C34.1417 111.07 33.8197 111.238 33.8197 111.714C33.8197 112.19 34.1417 112.372 34.8137 112.372ZM48.2941 112.372H53.3901C55.6721 112.372 56.9041 113.226 56.9041 114.934C56.9041 116.852 55.7421 118 52.8861 118H44.1641L46.0261 115.592H53.1101C53.7961 115.592 54.1041 115.396 54.1041 114.906C54.1041 114.43 53.7961 114.234 53.1101 114.234H48.0141C45.6061 114.234 44.5001 113.156 44.5001 111.546C44.5001 109.782 45.6761 108.634 48.5181 108.634H56.6521L54.7901 111.07H48.2941C47.6221 111.07 47.3001 111.238 47.3001 111.714C47.3001 112.19 47.6221 112.372 48.2941 112.372ZM61.1306 108.634V118H58.2326V108.634H61.1306ZM69.4867 108.48C74.0367 108.48 76.3327 109.964 76.3327 113.31C76.3327 116.656 74.0367 118.154 69.4867 118.154C64.9227 118.154 62.6407 116.656 62.6407 113.31C62.6407 109.964 64.9227 108.48 69.4867 108.48ZM69.4867 115.718C72.3987 115.718 73.4487 115.326 73.4487 113.31C73.4487 111.294 72.3987 110.916 69.4867 110.916C66.5747 110.916 65.5247 111.294 65.5247 113.31C65.5247 115.326 66.5747 115.718 69.4867 115.718ZM87.2881 118.154C86.9241 118.154 86.5741 118.07 86.1261 117.65L80.3861 112.498V118H77.7541V110.23C77.7541 108.984 78.5101 108.48 79.3361 108.48C79.6861 108.48 80.0361 108.564 80.4981 108.984L86.2381 114.136V108.634H88.8841V116.39C88.8841 117.636 88.1281 118.154 87.2881 118.154ZM106.522 113.184C107.334 113.422 107.992 114.15 107.992 115.27C107.992 116.824 107.138 118 104.184 118H95.9523V112.302H104.24C104.66 112.302 105.052 112.148 105.052 111.672C105.052 111.21 104.646 111.07 104.24 111.07H95.9523L97.9123 108.634H104.114C106.354 108.634 107.796 109.502 107.796 111.224C107.796 112.33 107.166 112.946 106.522 113.184ZM104.198 114.304H98.8643V115.592H104.198C104.828 115.592 105.094 115.368 105.094 114.934C105.094 114.528 104.828 114.304 104.198 114.304ZM112.358 115.592H120.324L118.462 118H109.446V108.634H120.296L118.42 111.07H112.358V112.19H119.778L118.112 114.318H112.358V115.592ZM124.898 112.372H129.994C132.276 112.372 133.508 113.226 133.508 114.934C133.508 116.852 132.346 118 129.49 118H120.768L122.63 115.592H129.714C130.4 115.592 130.708 115.396 130.708 114.906C130.708 114.43 130.4 114.234 129.714 114.234H124.618C122.21 114.234 121.104 113.156 121.104 111.546C121.104 109.782 122.28 108.634 125.122 108.634H133.256L131.394 111.07H124.898C124.226 111.07 123.904 111.238 123.904 111.714C123.904 112.19 124.226 112.372 124.898 112.372ZM134.954 108.634H145.594L143.718 111.07H140.372V118H137.474V111.07H133.078L134.954 108.634Z" fill="white"/>
<line x1="-21" y1="122.5" x2="169" y2="122.5" stroke="#DF13F1"/>
<path d="M258.504 108.12C263.048 108.12 265.336 109.816 265.336 113.64C265.336 117.464 263.048 119.176 258.504 119.176C253.96 119.176 251.672 117.464 251.672 113.64C251.672 109.816 253.96 108.12 258.504 108.12ZM258.504 116.392C261.128 116.392 262.072 115.944 262.072 113.64C262.072 111.336 261.128 110.904 258.504 110.904C255.88 110.904 254.936 111.336 254.936 113.64C254.936 115.944 255.88 116.392 258.504 116.392ZM266.094 117.64C266.094 116.648 266.894 116.072 267.886 116.072C268.894 116.072 269.694 116.648 269.694 117.64C269.694 118.616 268.894 119.176 267.886 119.176C266.894 119.176 266.094 118.616 266.094 117.64ZM277.504 108.12C282.048 108.12 284.336 109.816 284.336 113.64C284.336 117.464 282.048 119.176 277.504 119.176C272.96 119.176 270.672 117.464 270.672 113.64C270.672 109.816 272.96 108.12 277.504 108.12ZM277.504 116.392C280.128 116.392 281.072 115.944 281.072 113.64C281.072 111.336 280.128 110.904 277.504 110.904C274.88 110.904 273.936 111.336 273.936 113.64C273.936 115.944 274.88 116.392 277.504 116.392ZM292.52 108.12C297.064 108.12 299.352 109.816 299.352 113.64C299.352 117.464 297.064 119.176 292.52 119.176C287.976 119.176 285.688 117.464 285.688 113.64C285.688 109.816 287.976 108.12 292.52 108.12ZM292.52 116.392C295.144 116.392 296.088 115.944 296.088 113.64C296.088 111.336 295.144 110.904 292.52 110.904C289.896 110.904 288.952 111.336 288.952 113.64C288.952 115.944 289.896 116.392 292.52 116.392ZM300.11 117.64C300.11 116.648 300.91 116.072 301.902 116.072C302.91 116.072 303.71 116.648 303.71 117.64C303.71 118.616 302.91 119.176 301.902 119.176C300.91 119.176 300.11 118.616 300.11 117.64ZM311.52 108.12C316.064 108.12 318.352 109.816 318.352 113.64C318.352 117.464 316.064 119.176 311.52 119.176C306.976 119.176 304.688 117.464 304.688 113.64C304.688 109.816 306.976 108.12 311.52 108.12ZM311.52 116.392C314.144 116.392 315.088 115.944 315.088 113.64C315.088 111.336 314.144 110.904 311.52 110.904C308.896 110.904 307.952 111.336 307.952 113.64C307.952 115.944 308.896 116.392 311.52 116.392ZM326.535 108.12C331.079 108.12 333.367 109.816 333.367 113.64C333.367 117.464 331.079 119.176 326.535 119.176C321.991 119.176 319.703 117.464 319.703 113.64C319.703 109.816 321.991 108.12 326.535 108.12ZM326.535 116.392C329.159 116.392 330.103 115.944 330.103 113.64C330.103 111.336 329.159 110.904 326.535 110.904C323.911 110.904 322.967 111.336 322.967 113.64C322.967 115.944 323.911 116.392 326.535 116.392ZM341.551 108.12C346.095 108.12 348.383 109.816 348.383 113.64C348.383 117.464 346.095 119.176 341.551 119.176C337.007 119.176 334.719 117.464 334.719 113.64C334.719 109.816 337.007 108.12 341.551 108.12ZM341.551 116.392C344.175 116.392 345.119 115.944 345.119 113.64C345.119 111.336 344.175 110.904 341.551 110.904C338.927 110.904 337.983 111.336 337.983 113.64C337.983 115.944 338.927 116.392 341.551 116.392Z" fill="white"/>
</g>
<g clip-path="url(#clip1_738_2473)">
<path d="M0 5C0 2.23858 2.23858 0 5 0H380C382.761 0 385 2.23858 385 5V29H0V5Z" fill="#3B3B3B"/>
<rect x="192" y="34.6191" width="258.213" height="206.254" transform="rotate(-60 192 34.6191)" fill="#525151"/>
<path d="M10.23 17.592H16.796L14.934 20H10.23C6.982 20 4.588 17.942 4.588 15.226C4.588 12.482 6.982 10.634 10.23 10.634H16.796L14.934 13.07H10.23C8.662 13.07 7.486 14.008 7.486 15.352C7.486 16.682 8.648 17.592 10.23 17.592ZM29.9679 10.634V15.912C29.9679 18.74 28.0219 20.154 24.1299 20.154C19.6219 20.154 17.6759 18.74 17.6759 15.912V10.634H20.5599V15.912C20.5599 17.298 21.1479 17.746 24.1299 17.746C26.3559 17.746 27.0559 17.228 27.0559 15.912V10.634H29.9679ZM43.1745 18.18L44.8965 20H41.0185L38.9325 17.522H34.4805V20H31.5825V15.212H39.7305C40.6265 15.212 41.3265 14.806 41.3265 14.162C41.3265 13.434 40.7245 13.07 39.7305 13.07H31.5825L33.4725 10.634H39.4925C41.6205 10.634 44.3085 11.306 44.3085 13.98C44.3085 15.436 43.3985 16.64 41.8585 16.948C42.1805 17.186 42.5305 17.522 43.1745 18.18ZM57.5026 18.18L59.2246 20H55.3466L53.2606 17.522H48.8086V20H45.9106V15.212H54.0586C54.9546 15.212 55.6546 14.806 55.6546 14.162C55.6546 13.434 55.0526 13.07 54.0586 13.07H45.9106L47.8006 10.634H53.8206C55.9486 10.634 58.6366 11.306 58.6366 13.98C58.6366 15.436 57.7266 16.64 56.1866 16.948C56.5086 17.186 56.8586 17.522 57.5026 18.18ZM63.1788 17.592H71.1448L69.2828 20H60.2668V10.634H71.1168L69.2408 13.07H63.1788V14.19H70.5988L68.9328 16.318H63.1788V17.592ZM81.626 20.154C81.262 20.154 80.912 20.07 80.464 19.65L74.724 14.498V20H72.092V12.23C72.092 10.984 72.848 10.48 73.674 10.48C74.024 10.48 74.374 10.564 74.836 10.984L80.576 16.136V10.634H83.222V18.39C83.222 19.636 82.466 20.154 81.626 20.154ZM85.9248 10.634H96.5648L94.6888 13.07H91.3428V20H88.4448V13.07H84.0488L85.9248 10.634ZM105.698 17.592H112.95L111.074 20H102.8V10.634H105.698V17.592ZM128.304 20H117.412L119.162 17.592H121.514C122.074 17.592 122.732 17.592 123.18 17.62C122.928 17.284 122.536 16.71 122.228 16.262L120.548 13.784L116.152 20H112.722L118.728 11.53C119.12 10.984 119.694 10.48 120.604 10.48C121.472 10.48 122.046 10.942 122.452 11.53L128.304 20ZM141.699 14.148C141.699 16.22 140.005 17.606 137.093 17.606H132.193V20H129.309V15.212H137.373C138.269 15.212 138.787 14.778 138.787 14.134C138.787 13.476 138.269 13.07 137.373 13.07H129.309L131.227 10.634H137.107C140.005 10.634 141.699 12.062 141.699 14.148Z" fill="white"/>
<path d="M-21 25H169" stroke="white"/>
<path d="M257.504 9.12C262.048 9.12 264.336 10.816 264.336 14.64C264.336 18.464 262.048 20.176 257.504 20.176C252.96 20.176 250.672 18.464 250.672 14.64C250.672 10.816 252.96 9.12 257.504 9.12ZM257.504 17.392C260.128 17.392 261.072 16.944 261.072 14.64C261.072 12.336 260.128 11.904 257.504 11.904C254.88 11.904 253.936 12.336 253.936 14.64C253.936 16.944 254.88 17.392 257.504 17.392ZM265.094 18.64C265.094 17.648 265.894 17.072 266.886 17.072C267.894 17.072 268.694 17.648 268.694 18.64C268.694 19.616 267.894 20.176 266.886 20.176C265.894 20.176 265.094 19.616 265.094 18.64ZM276.504 9.12C281.048 9.12 283.336 10.816 283.336 14.64C283.336 18.464 281.048 20.176 276.504 20.176C271.96 20.176 269.672 18.464 269.672 14.64C269.672 10.816 271.96 9.12 276.504 9.12ZM276.504 17.392C279.128 17.392 280.072 16.944 280.072 14.64C280.072 12.336 279.128 11.904 276.504 11.904C273.88 11.904 272.936 12.336 272.936 14.64C272.936 16.944 273.88 17.392 276.504 17.392ZM291.52 9.12C296.064 9.12 298.352 10.816 298.352 14.64C298.352 18.464 296.064 20.176 291.52 20.176C286.976 20.176 284.688 18.464 284.688 14.64C284.688 10.816 286.976 9.12 291.52 9.12ZM291.52 17.392C294.144 17.392 295.088 16.944 295.088 14.64C295.088 12.336 294.144 11.904 291.52 11.904C288.896 11.904 287.952 12.336 287.952 14.64C287.952 16.944 288.896 17.392 291.52 17.392ZM299.11 18.64C299.11 17.648 299.91 17.072 300.902 17.072C301.91 17.072 302.71 17.648 302.71 18.64C302.71 19.616 301.91 20.176 300.902 20.176C299.91 20.176 299.11 19.616 299.11 18.64ZM310.52 9.12C315.064 9.12 317.352 10.816 317.352 14.64C317.352 18.464 315.064 20.176 310.52 20.176C305.976 20.176 303.688 18.464 303.688 14.64C303.688 10.816 305.976 9.12 310.52 9.12ZM310.52 17.392C313.144 17.392 314.088 16.944 314.088 14.64C314.088 12.336 313.144 11.904 310.52 11.904C307.896 11.904 306.952 12.336 306.952 14.64C306.952 16.944 307.896 17.392 310.52 17.392ZM325.535 9.12C330.079 9.12 332.367 10.816 332.367 14.64C332.367 18.464 330.079 20.176 325.535 20.176C320.991 20.176 318.703 18.464 318.703 14.64C318.703 10.816 320.991 9.12 325.535 9.12ZM325.535 17.392C328.159 17.392 329.103 16.944 329.103 14.64C329.103 12.336 328.159 11.904 325.535 11.904C322.911 11.904 321.967 12.336 321.967 14.64C321.967 16.944 322.911 17.392 325.535 17.392ZM340.551 9.12C345.095 9.12 347.383 10.816 347.383 14.64C347.383 18.464 345.095 20.176 340.551 20.176C336.007 20.176 333.719 18.464 333.719 14.64C333.719 10.816 336.007 9.12 340.551 9.12ZM340.551 17.392C343.175 17.392 344.119 16.944 344.119 14.64C344.119 12.336 343.175 11.904 340.551 11.904C337.927 11.904 336.983 12.336 336.983 14.64C336.983 16.944 337.927 17.392 340.551 17.392Z" fill="white"/>
</g>
<g clip-path="url(#clip2_738_2473)">
<rect width="385" height="29" transform="translate(0 33)" fill="#3B3B3B"/>
<rect x="169" y="94.6191" width="258.213" height="201.958" transform="rotate(-60 169 94.6191)" fill="#525151"/>
<path d="M8.78 49.592H16.032L14.156 52H5.882V42.634H8.78V49.592ZM31.3864 52H20.4944L22.2444 49.592H24.5964C25.1564 49.592 25.8144 49.592 26.2624 49.62C26.0104 49.284 25.6184 48.71 25.3104 48.262L23.6304 45.784L19.2344 52H15.8044L21.8104 43.53C22.2024 42.984 22.7764 42.48 23.6864 42.48C24.5544 42.48 25.1284 42.942 25.5344 43.53L31.3864 52ZM36.0031 46.372H41.0991C43.3811 46.372 44.6131 47.226 44.6131 48.934C44.6131 50.852 43.4511 52 40.5951 52H31.8731L33.7351 49.592H40.8191C41.5051 49.592 41.8131 49.396 41.8131 48.906C41.8131 48.43 41.5051 48.234 40.8191 48.234H35.7231C33.3151 48.234 32.2091 47.156 32.2091 45.546C32.2091 43.782 33.3851 42.634 36.2271 42.634H44.3611L42.4991 45.07H36.0031C35.3311 45.07 35.0091 45.238 35.0091 45.714C35.0091 46.19 35.3311 46.372 36.0031 46.372ZM46.0596 42.634H56.6996L54.8236 45.07H51.4776V52H48.5796V45.07H44.1836L46.0596 42.634ZM65.8327 49.592H73.0847L71.2087 52H62.9347V42.634H65.8327V49.592ZM88.4391 52H77.5471L79.2971 49.592H81.6491C82.2091 49.592 82.8671 49.592 83.3151 49.62C83.0631 49.284 82.6711 48.71 82.3631 48.262L80.6831 45.784L76.2871 52H72.8571L78.8631 43.53C79.2551 42.984 79.8291 42.48 80.7391 42.48C81.6071 42.48 82.1811 42.942 82.5871 43.53L88.4391 52ZM101.834 46.148C101.834 48.22 100.14 49.606 97.2278 49.606H92.3278V52H89.4438V47.212H97.5078C98.4038 47.212 98.9218 46.778 98.9218 46.134C98.9218 45.476 98.4038 45.07 97.5078 45.07H89.4438L91.3618 42.634H97.2418C100.14 42.634 101.834 44.062 101.834 46.148Z" fill="white"/>
<path d="M-21 57H169" stroke="white"/>
<path d="M258.504 42.12C263.048 42.12 265.336 43.816 265.336 47.64C265.336 51.464 263.048 53.176 258.504 53.176C253.96 53.176 251.672 51.464 251.672 47.64C251.672 43.816 253.96 42.12 258.504 42.12ZM258.504 50.392C261.128 50.392 262.072 49.944 262.072 47.64C262.072 45.336 261.128 44.904 258.504 44.904C255.88 44.904 254.936 45.336 254.936 47.64C254.936 49.944 255.88 50.392 258.504 50.392ZM266.094 51.64C266.094 50.648 266.894 50.072 267.886 50.072C268.894 50.072 269.694 50.648 269.694 51.64C269.694 52.616 268.894 53.176 267.886 53.176C266.894 53.176 266.094 52.616 266.094 51.64ZM277.504 42.12C282.048 42.12 284.336 43.816 284.336 47.64C284.336 51.464 282.048 53.176 277.504 53.176C272.96 53.176 270.672 51.464 270.672 47.64C270.672 43.816 272.96 42.12 277.504 42.12ZM277.504 50.392C280.128 50.392 281.072 49.944 281.072 47.64C281.072 45.336 280.128 44.904 277.504 44.904C274.88 44.904 273.936 45.336 273.936 47.64C273.936 49.944 274.88 50.392 277.504 50.392ZM292.52 42.12C297.064 42.12 299.352 43.816 299.352 47.64C299.352 51.464 297.064 53.176 292.52 53.176C287.976 53.176 285.688 51.464 285.688 47.64C285.688 43.816 287.976 42.12 292.52 42.12ZM292.52 50.392C295.144 50.392 296.088 49.944 296.088 47.64C296.088 45.336 295.144 44.904 292.52 44.904C289.896 44.904 288.952 45.336 288.952 47.64C288.952 49.944 289.896 50.392 292.52 50.392ZM300.11 51.64C300.11 50.648 300.91 50.072 301.902 50.072C302.91 50.072 303.71 50.648 303.71 51.64C303.71 52.616 302.91 53.176 301.902 53.176C300.91 53.176 300.11 52.616 300.11 51.64ZM311.52 42.12C316.064 42.12 318.352 43.816 318.352 47.64C318.352 51.464 316.064 53.176 311.52 53.176C306.976 53.176 304.688 51.464 304.688 47.64C304.688 43.816 306.976 42.12 311.52 42.12ZM311.52 50.392C314.144 50.392 315.088 49.944 315.088 47.64C315.088 45.336 314.144 44.904 311.52 44.904C308.896 44.904 307.952 45.336 307.952 47.64C307.952 49.944 308.896 50.392 311.52 50.392ZM326.535 42.12C331.079 42.12 333.367 43.816 333.367 47.64C333.367 51.464 331.079 53.176 326.535 53.176C321.991 53.176 319.703 51.464 319.703 47.64C319.703 43.816 321.991 42.12 326.535 42.12ZM326.535 50.392C329.159 50.392 330.103 49.944 330.103 47.64C330.103 45.336 329.159 44.904 326.535 44.904C323.911 44.904 322.967 45.336 322.967 47.64C322.967 49.944 323.911 50.392 326.535 50.392ZM341.551 42.12C346.095 42.12 348.383 43.816 348.383 47.64C348.383 51.464 346.095 53.176 341.551 53.176C337.007 53.176 334.719 51.464 334.719 47.64C334.719 43.816 337.007 42.12 341.551 42.12ZM341.551 50.392C344.175 50.392 345.119 49.944 345.119 47.64C345.119 45.336 344.175 44.904 341.551 44.904C338.927 44.904 337.983 45.336 337.983 47.64C337.983 49.944 338.927 50.392 341.551 50.392Z" fill="white"/>
</g>
<g clip-path="url(#clip3_738_2473)">
<rect width="385" height="29" transform="translate(0 66)" fill="#3B3B3B"/>
<rect x="169" y="127.619" width="258.213" height="201.958" transform="rotate(-60 169 127.619)" fill="#525151"/>
<path d="M11.23 82.592H17.796L15.934 85H11.23C7.982 85 5.588 82.942 5.588 80.226C5.588 77.482 7.982 75.634 11.23 75.634H17.796L15.934 78.07H11.23C9.662 78.07 8.486 79.008 8.486 80.352C8.486 81.682 9.648 82.592 11.23 82.592ZM30.9679 75.634V80.912C30.9679 83.74 29.0219 85.154 25.1299 85.154C20.6219 85.154 18.6759 83.74 18.6759 80.912V75.634H21.5599V80.912C21.5599 82.298 22.1479 82.746 25.1299 82.746C27.3559 82.746 28.0559 82.228 28.0559 80.912V75.634H30.9679ZM44.1745 83.18L45.8965 85H42.0185L39.9325 82.522H35.4805V85H32.5825V80.212H40.7305C41.6265 80.212 42.3265 79.806 42.3265 79.162C42.3265 78.434 41.7245 78.07 40.7305 78.07H32.5825L34.4725 75.634H40.4925C42.6205 75.634 45.3085 76.306 45.3085 78.98C45.3085 80.436 44.3985 81.64 42.8585 81.948C43.1805 82.186 43.5305 82.522 44.1745 83.18ZM58.5026 83.18L60.2246 85H56.3466L54.2606 82.522H49.8086V85H46.9106V80.212H55.0586C55.9546 80.212 56.6546 79.806 56.6546 79.162C56.6546 78.434 56.0526 78.07 55.0586 78.07H46.9106L48.8006 75.634H54.8206C56.9486 75.634 59.6366 76.306 59.6366 78.98C59.6366 80.436 58.7266 81.64 57.1866 81.948C57.5086 82.186 57.8586 82.522 58.5026 83.18ZM64.1788 82.592H72.1448L70.2828 85H61.2668V75.634H72.1168L70.2408 78.07H64.1788V79.19H71.5988L69.9328 81.318H64.1788V82.592ZM82.626 85.154C82.262 85.154 81.912 85.07 81.464 84.65L75.724 79.498V85H73.092V77.23C73.092 75.984 73.848 75.48 74.674 75.48C75.024 75.48 75.374 75.564 75.836 75.984L81.576 81.136V75.634H84.222V83.39C84.222 84.636 83.466 85.154 82.626 85.154ZM86.9248 75.634H97.5648L95.6888 78.07H92.3428V85H89.4448V78.07H85.0488L86.9248 75.634ZM106.698 82.592H113.95L112.074 85H103.8V75.634H106.698V82.592ZM129.304 85H118.412L120.162 82.592H122.514C123.074 82.592 123.732 82.592 124.18 82.62C123.928 82.284 123.536 81.71 123.228 81.262L121.548 78.784L117.152 85H113.722L119.728 76.53C120.12 75.984 120.694 75.48 121.604 75.48C122.472 75.48 123.046 75.942 123.452 76.53L129.304 85ZM142.699 79.148C142.699 81.22 141.005 82.606 138.093 82.606H133.193V85H130.309V80.212H138.373C139.269 80.212 139.787 79.778 139.787 79.134C139.787 78.476 139.269 78.07 138.373 78.07H130.309L132.227 75.634H138.107C141.005 75.634 142.699 77.062 142.699 79.148Z" fill="white"/>
<path d="M-21 90H169" stroke="#0EE80A"/>
<path d="M258.504 75.12C263.048 75.12 265.336 76.816 265.336 80.64C265.336 84.464 263.048 86.176 258.504 86.176C253.96 86.176 251.672 84.464 251.672 80.64C251.672 76.816 253.96 75.12 258.504 75.12ZM258.504 83.392C261.128 83.392 262.072 82.944 262.072 80.64C262.072 78.336 261.128 77.904 258.504 77.904C255.88 77.904 254.936 78.336 254.936 80.64C254.936 82.944 255.88 83.392 258.504 83.392ZM266.094 84.64C266.094 83.648 266.894 83.072 267.886 83.072C268.894 83.072 269.694 83.648 269.694 84.64C269.694 85.616 268.894 86.176 267.886 86.176C266.894 86.176 266.094 85.616 266.094 84.64ZM277.504 75.12C282.048 75.12 284.336 76.816 284.336 80.64C284.336 84.464 282.048 86.176 277.504 86.176C272.96 86.176 270.672 84.464 270.672 80.64C270.672 76.816 272.96 75.12 277.504 75.12ZM277.504 83.392C280.128 83.392 281.072 82.944 281.072 80.64C281.072 78.336 280.128 77.904 277.504 77.904C274.88 77.904 273.936 78.336 273.936 80.64C273.936 82.944 274.88 83.392 277.504 83.392ZM292.52 75.12C297.064 75.12 299.352 76.816 299.352 80.64C299.352 84.464 297.064 86.176 292.52 86.176C287.976 86.176 285.688 84.464 285.688 80.64C285.688 76.816 287.976 75.12 292.52 75.12ZM292.52 83.392C295.144 83.392 296.088 82.944 296.088 80.64C296.088 78.336 295.144 77.904 292.52 77.904C289.896 77.904 288.952 78.336 288.952 80.64C288.952 82.944 289.896 83.392 292.52 83.392ZM300.11 84.64C300.11 83.648 300.91 83.072 301.902 83.072C302.91 83.072 303.71 83.648 303.71 84.64C303.71 85.616 302.91 86.176 301.902 86.176C300.91 86.176 300.11 85.616 300.11 84.64ZM311.52 75.12C316.064 75.12 318.352 76.816 318.352 80.64C318.352 84.464 316.064 86.176 311.52 86.176C306.976 86.176 304.688 84.464 304.688 80.64C304.688 76.816 306.976 75.12 311.52 75.12ZM311.52 83.392C314.144 83.392 315.088 82.944 315.088 80.64C315.088 78.336 314.144 77.904 311.52 77.904C308.896 77.904 307.952 78.336 307.952 80.64C307.952 82.944 308.896 83.392 311.52 83.392ZM326.535 75.12C331.079 75.12 333.367 76.816 333.367 80.64C333.367 84.464 331.079 86.176 326.535 86.176C321.991 86.176 319.703 84.464 319.703 80.64C319.703 76.816 321.991 75.12 326.535 75.12ZM326.535 83.392C329.159 83.392 330.103 82.944 330.103 80.64C330.103 78.336 329.159 77.904 326.535 77.904C323.911 77.904 322.967 78.336 322.967 80.64C322.967 82.944 323.911 83.392 326.535 83.392ZM341.551 75.12C346.095 75.12 348.383 76.816 348.383 80.64C348.383 84.464 346.095 86.176 341.551 86.176C337.007 86.176 334.719 84.464 334.719 80.64C334.719 76.816 337.007 75.12 341.551 75.12ZM341.551 83.392C344.175 83.392 345.119 82.944 345.119 80.64C345.119 78.336 344.175 77.904 341.551 77.904C338.927 77.904 337.983 78.336 337.983 80.64C337.983 82.944 338.927 83.392 341.551 83.392Z" fill="white"/>
</g>
<defs>
<clipPath id="clip0_738_2473">
<path d="M0 99H385V123C385 125.761 382.761 128 380 128H5C2.23858 128 0 125.761 0 123V99Z" fill="white"/>
</clipPath>
<clipPath id="clip1_738_2473">
<path d="M0 5C0 2.23858 2.23858 0 5 0H380C382.761 0 385 2.23858 385 5V29H0V5Z" fill="white"/>
</clipPath>
<clipPath id="clip2_738_2473">
<rect width="385" height="29" fill="white" transform="translate(0 33)"/>
</clipPath>
<clipPath id="clip3_738_2473">
<rect width="385" height="29" fill="white" transform="translate(0 66)"/>
</clipPath>
</defs>
</svg>
