<svg xmlns="http://www.w3.org/2000/svg" xmlns:xlink="http://www.w3.org/1999/xlink" width="1200" zoomAndPan="magnify" viewBox="0 0 900 374.999991" height="500" preserveAspectRatio="xMidYMid meet" version="1.0"><defs><clipPath id="d1a69460fd"><path d="M 463.101562 314.742188 L 499 314.742188 L 499 374.742188 L 463.101562 374.742188 Z M 463.101562 314.742188 " clip-rule="nonzero"/></clipPath><clipPath id="a3c7bda277"><path d="M 486 314.742188 L 524 314.742188 L 524 374.742188 L 486 374.742188 Z M 486 314.742188 " clip-rule="nonzero"/></clipPath><clipPath id="c917a9c8fa"><path d="M 510 314.742188 L 549 314.742188 L 549 374.742188 L 510 374.742188 Z M 510 314.742188 " clip-rule="nonzero"/></clipPath><clipPath id="69ddd94ef4"><path d="M 534 314.742188 L 574 314.742188 L 574 374.742188 L 534 374.742188 Z M 534 314.742188 " clip-rule="nonzero"/></clipPath><clipPath id="bfbdf80493"><path d="M 558 314.742188 L 599 314.742188 L 599 374.742188 L 558 374.742188 Z M 558 314.742188 " clip-rule="nonzero"/></clipPath><clipPath id="7eb2952c31"><path d="M 582 314.742188 L 624 314.742188 L 624 374.742188 L 582 374.742188 Z M 582 314.742188 " clip-rule="nonzero"/></clipPath><clipPath id="a4b8013768"><path d="M 606 314.742188 L 649 314.742188 L 649 374.742188 L 606 374.742188 Z M 606 314.742188 " clip-rule="nonzero"/></clipPath><clipPath id="956c2dbdb5"><path d="M 629 314.742188 L 674 314.742188 L 674 374.742188 L 629 374.742188 Z M 629 314.742188 " clip-rule="nonzero"/></clipPath><clipPath id="cd7692f277"><path d="M 653 314.742188 L 699 314.742188 L 699 374.742188 L 653 374.742188 Z M 653 314.742188 " clip-rule="nonzero"/></clipPath><clipPath id="79eac25759"><path d="M 677 314.742188 L 724 314.742188 L 724 374.742188 L 677 374.742188 Z M 677 314.742188 " clip-rule="nonzero"/></clipPath><clipPath id="b713936633"><path d="M 701 314.742188 L 749 314.742188 L 749 374.742188 L 701 374.742188 Z M 701 314.742188 " clip-rule="nonzero"/></clipPath><clipPath id="c507ea4c4e"><path d="M 725 314.742188 L 774 314.742188 L 774 374.742188 L 725 374.742188 Z M 725 314.742188 " clip-rule="nonzero"/></clipPath><clipPath id="7ed1ac4afc"><path d="M 748 314.742188 L 799 314.742188 L 799 374.742188 L 748 374.742188 Z M 748 314.742188 " clip-rule="nonzero"/></clipPath><clipPath id="94d6f9117c"><path d="M 772 314.742188 L 824 314.742188 L 824 374.742188 L 772 374.742188 Z M 772 314.742188 " clip-rule="nonzero"/></clipPath><clipPath id="3bebfc095d"><path d="M 796 314.742188 L 849 314.742188 L 849 374.742188 L 796 374.742188 Z M 796 314.742188 " clip-rule="nonzero"/></clipPath><clipPath id="d8af9fb366"><path d="M 820 314.742188 L 874 314.742188 L 874 374.742188 L 820 374.742188 Z M 820 314.742188 " clip-rule="nonzero"/></clipPath><clipPath id="0839a023b8"><path d="M 844 314.742188 L 899 314.742188 L 899 374.742188 L 844 374.742188 Z M 844 314.742188 " clip-rule="nonzero"/></clipPath><clipPath id="9d292b15f0"><path d="M 868 314.742188 L 900 314.742188 L 900 374.742188 L 868 374.742188 Z M 868 314.742188 " clip-rule="nonzero"/></clipPath><clipPath id="3e716a845f"><path d="M 0 251 L 111.425781 251 L 111.425781 374.988281 L 0 374.988281 Z M 0 251 " clip-rule="nonzero"/></clipPath><clipPath id="a956d41225"><path d="M 0 177 L 111.425781 177 L 111.425781 302 L 0 302 Z M 0 177 " clip-rule="nonzero"/></clipPath><clipPath id="5dcaa114fe"><path d="M 0 104 L 111.425781 104 L 111.425781 228 L 0 228 Z M 0 104 " clip-rule="nonzero"/></clipPath><clipPath id="e798bf275e"><path d="M 0 30 L 111.425781 30 L 111.425781 154 L 0 154 Z M 0 30 " clip-rule="nonzero"/></clipPath></defs><g clip-path="url(#d1a69460fd)"><path fill="#9d191d" d="M 497.90625 314.742188 L 463.113281 375 L 464.054688 375 L 498.839844 314.742188 Z M 497.90625 314.742188 " fill-opacity="1" fill-rule="evenodd"/></g><g clip-path="url(#a3c7bda277)"><path fill="#9d191d" d="M 521.722656 314.742188 C 510.125 334.828125 498.527344 354.914062 486.929688 375 C 487.636719 375 488.339844 375 489.039062 375 C 500.636719 354.914062 512.234375 334.828125 523.832031 314.742188 C 523.125 314.742188 522.421875 314.742188 521.722656 314.742188 Z M 521.722656 314.742188 " fill-opacity="1" fill-rule="evenodd"/></g><g clip-path="url(#c917a9c8fa)"><path fill="#9d191d" d="M 545.539062 314.742188 C 533.941406 334.828125 522.34375 354.914062 510.753906 375 C 511.847656 375 512.941406 375 514.03125 375 C 525.628906 354.914062 537.226562 334.828125 548.816406 314.742188 C 547.726562 314.742188 546.632812 314.742188 545.539062 314.742188 Z M 545.539062 314.742188 " fill-opacity="1" fill-rule="evenodd"/></g><g clip-path="url(#69ddd94ef4)"><path fill="#9d191d" d="M 569.359375 314.742188 C 557.757812 334.828125 546.160156 354.914062 534.574219 375 C 536.050781 375 537.539062 375 539.019531 375 C 550.617188 354.914062 562.214844 334.828125 573.8125 314.742188 C 572.324219 314.742188 570.84375 314.742188 569.359375 314.742188 Z M 569.359375 314.742188 " fill-opacity="1" fill-rule="evenodd"/></g><g clip-path="url(#bfbdf80493)"><path fill="#9d191d" d="M 593.175781 314.742188 C 581.585938 334.828125 569.988281 354.914062 558.390625 375 C 560.265625 375 562.136719 375 564.011719 375 C 575.609375 354.914062 587.199219 334.828125 598.796875 314.742188 C 596.921875 314.742188 595.050781 314.742188 593.175781 314.742188 Z M 593.175781 314.742188 " fill-opacity="1" fill-rule="evenodd"/></g><g clip-path="url(#7eb2952c31)"><path fill="#9d191d" d="M 617 314.742188 C 605.402344 334.828125 593.804688 354.914062 582.207031 375 C 584.46875 375 586.738281 375 588.996094 375 C 600.597656 354.914062 612.195312 334.828125 623.792969 314.742188 C 621.523438 314.742188 619.261719 314.742188 617 314.742188 Z M 617 314.742188 " fill-opacity="1" fill-rule="evenodd"/></g><g clip-path="url(#a4b8013768)"><path fill="#9d191d" d="M 640.816406 314.742188 C 629.21875 334.828125 617.621094 354.914062 606.023438 375 C 608.679688 375 611.335938 375 613.992188 375 C 625.582031 354.914062 637.179688 334.828125 648.777344 314.742188 C 646.121094 314.742188 643.472656 314.742188 640.816406 314.742188 Z M 640.816406 314.742188 " fill-opacity="1" fill-rule="evenodd"/></g><g clip-path="url(#956c2dbdb5)"><path fill="#9d191d" d="M 664.636719 314.742188 C 653.039062 334.828125 641.441406 354.914062 629.851562 375 C 632.894531 375 635.933594 375 638.976562 375 C 650.574219 354.914062 662.171875 334.828125 673.769531 314.742188 C 670.71875 314.742188 667.675781 314.742188 664.636719 314.742188 Z M 664.636719 314.742188 " fill-opacity="1" fill-rule="evenodd"/></g><g clip-path="url(#cd7692f277)"><path fill="#9d191d" d="M 688.453125 314.742188 C 676.855469 334.828125 665.265625 354.914062 653.667969 375 C 657.097656 375 660.535156 375 663.964844 375 C 675.5625 354.914062 687.160156 334.828125 698.757812 314.742188 C 695.320312 314.742188 691.890625 314.742188 688.453125 314.742188 Z M 688.453125 314.742188 " fill-opacity="1" fill-rule="evenodd"/></g><g clip-path="url(#79eac25759)"><path fill="#9d191d" d="M 712.277344 314.742188 C 700.679688 334.828125 689.082031 354.914062 677.484375 375 C 681.308594 375 685.132812 375 688.957031 375 C 700.554688 354.914062 712.152344 334.828125 723.75 314.742188 C 719.917969 314.742188 716.09375 314.742188 712.277344 314.742188 Z M 712.277344 314.742188 " fill-opacity="1" fill-rule="evenodd"/></g><g clip-path="url(#b713936633)"><path fill="#9d191d" d="M 736.097656 314.742188 C 724.5 334.828125 712.902344 354.914062 701.304688 375 C 705.523438 375 709.730469 375 713.941406 375 C 725.539062 354.914062 737.136719 334.828125 748.734375 314.742188 C 744.523438 314.742188 740.304688 314.742188 736.097656 314.742188 Z M 736.097656 314.742188 " fill-opacity="1" fill-rule="evenodd"/></g><g clip-path="url(#c507ea4c4e)"><path fill="#9d191d" d="M 759.914062 314.742188 C 748.316406 334.828125 736.71875 354.914062 725.121094 375 C 729.726562 375 734.332031 375 738.9375 375 C 750.535156 354.914062 762.132812 334.828125 773.722656 314.742188 C 769.125 314.742188 764.519531 314.742188 759.914062 314.742188 Z M 759.914062 314.742188 " fill-opacity="1" fill-rule="evenodd"/></g><g clip-path="url(#7ed1ac4afc)"><path fill="#9d191d" d="M 783.730469 314.742188 C 772.132812 334.828125 760.535156 354.914062 748.945312 375 C 753.9375 375 758.929688 375 763.921875 375 C 775.519531 354.914062 787.117188 334.828125 798.714844 314.742188 C 793.722656 314.742188 788.722656 314.742188 783.730469 314.742188 Z M 783.730469 314.742188 " fill-opacity="1" fill-rule="evenodd"/></g><g clip-path="url(#94d6f9117c)"><path fill="#9d191d" d="M 807.546875 314.742188 C 795.957031 334.828125 784.359375 354.914062 772.761719 375 C 778.140625 375 783.527344 375 788.917969 375 C 800.515625 354.914062 812.101562 334.828125 823.699219 314.742188 C 818.320312 314.742188 812.933594 314.742188 807.546875 314.742188 Z M 807.546875 314.742188 " fill-opacity="1" fill-rule="evenodd"/></g><g clip-path="url(#3bebfc095d)"><path fill="#9d191d" d="M 831.375 314.742188 C 819.777344 334.828125 808.179688 354.914062 796.582031 375 C 802.355469 375 808.128906 375 813.902344 375 C 825.5 354.914062 837.097656 334.828125 848.695312 314.742188 C 842.921875 314.742188 837.148438 314.742188 831.375 314.742188 Z M 831.375 314.742188 " fill-opacity="1" fill-rule="evenodd"/></g><g clip-path="url(#d8af9fb366)"><path fill="#9d191d" d="M 855.191406 314.742188 C 843.59375 334.828125 831.996094 354.914062 820.398438 375 C 826.566406 375 832.726562 375 838.894531 375 C 850.484375 354.914062 862.082031 334.828125 873.679688 314.742188 C 867.519531 314.742188 861.351562 314.742188 855.191406 314.742188 Z M 855.191406 314.742188 " fill-opacity="1" fill-rule="evenodd"/></g><g clip-path="url(#0839a023b8)"><path fill="#9d191d" d="M 879.007812 314.742188 C 867.410156 334.828125 855.8125 354.914062 844.214844 375 C 850.769531 375 857.324219 375 863.882812 375 C 875.480469 354.914062 887.078125 334.828125 898.675781 314.742188 C 892.121094 314.742188 885.5625 314.742188 879.007812 314.742188 Z M 879.007812 314.742188 " fill-opacity="1" fill-rule="evenodd"/></g><g clip-path="url(#9d292b15f0)"><path fill="#9d191d" d="M 902.824219 314.742188 L 868.042969 375 L 888.875 375 L 923.660156 314.742188 Z M 902.824219 314.742188 " fill-opacity="1" fill-rule="evenodd"/></g><g clip-path="url(#3e716a845f)"><path fill="#9d191d" d="M 111.394531 251.824219 L 111.394531 301.089844 L 37.496094 374.988281 L -36.402344 301.089844 L -36.402344 251.824219 L 37.496094 325.722656 Z M 111.394531 251.824219 " fill-opacity="1" fill-rule="nonzero"/></g><g clip-path="url(#a956d41225)"><path fill="#9d191d" d="M 111.394531 177.925781 L 111.394531 227.191406 L 37.496094 301.089844 L -36.402344 227.191406 L -36.402344 177.925781 L 37.496094 251.824219 Z M 111.394531 177.925781 " fill-opacity="1" fill-rule="nonzero"/></g><g clip-path="url(#5dcaa114fe)"><path fill="#9d191d" d="M 111.394531 104.027344 L 111.394531 153.292969 L 37.496094 227.191406 L -36.402344 153.292969 L -36.402344 104.027344 L 37.496094 177.925781 Z M 111.394531 104.027344 " fill-opacity="1" fill-rule="nonzero"/></g><g clip-path="url(#e798bf275e)"><path fill="#9d191d" d="M 111.394531 30.128906 L 111.394531 79.394531 L 37.496094 153.292969 L -36.402344 79.394531 L -36.402344 30.128906 L 37.496094 104.027344 Z M 111.394531 30.128906 " fill-opacity="1" fill-rule="nonzero"/></g></svg>