<svg width="385" height="95" viewBox="0 0 385 95" fill="none" xmlns="http://www.w3.org/2000/svg">
<g clip-path="url(#clip0_431_1208)">
<path d="M0 5C0 2.23858 2.23858 0 5 0H380C382.761 0 385 2.23858 385 5V29H0V5Z" fill="#3B3B3B"/>
<rect x="192" y="34.6191" width="258.213" height="206.254" transform="rotate(-60 192 34.6191)" fill="#525151"/>
<path d="M10.23 17.592H16.796L14.934 20H10.23C6.982 20 4.588 17.942 4.588 15.226C4.588 12.482 6.982 10.634 10.23 10.634H16.796L14.934 13.07H10.23C8.662 13.07 7.486 14.008 7.486 15.352C7.486 16.682 8.648 17.592 10.23 17.592ZM29.9679 10.634V15.912C29.9679 18.74 28.0219 20.154 24.1299 20.154C19.6219 20.154 17.6759 18.74 17.6759 15.912V10.634H20.5599V15.912C20.5599 17.298 21.1479 17.746 24.1299 17.746C26.3559 17.746 27.0559 17.228 27.0559 15.912V10.634H29.9679ZM43.1745 18.18L44.8965 20H41.0185L38.9325 17.522H34.4805V20H31.5825V15.212H39.7305C40.6265 15.212 41.3265 14.806 41.3265 14.162C41.3265 13.434 40.7245 13.07 39.7305 13.07H31.5825L33.4725 10.634H39.4925C41.6205 10.634 44.3085 11.306 44.3085 13.98C44.3085 15.436 43.3985 16.64 41.8585 16.948C42.1805 17.186 42.5305 17.522 43.1745 18.18ZM57.5026 18.18L59.2246 20H55.3466L53.2606 17.522H48.8086V20H45.9106V15.212H54.0586C54.9546 15.212 55.6546 14.806 55.6546 14.162C55.6546 13.434 55.0526 13.07 54.0586 13.07H45.9106L47.8006 10.634H53.8206C55.9486 10.634 58.6366 11.306 58.6366 13.98C58.6366 15.436 57.7266 16.64 56.1866 16.948C56.5086 17.186 56.8586 17.522 57.5026 18.18ZM63.1788 17.592H71.1448L69.2828 20H60.2668V10.634H71.1168L69.2408 13.07H63.1788V14.19H70.5988L68.9328 16.318H63.1788V17.592ZM81.626 20.154C81.262 20.154 80.912 20.07 80.464 19.65L74.724 14.498V20H72.092V12.23C72.092 10.984 72.848 10.48 73.674 10.48C74.024 10.48 74.374 10.564 74.836 10.984L80.576 16.136V10.634H83.222V18.39C83.222 19.636 82.466 20.154 81.626 20.154ZM85.9248 10.634H96.5648L94.6888 13.07H91.3428V20H88.4448V13.07H84.0488L85.9248 10.634ZM105.698 17.592H112.95L111.074 20H102.8V10.634H105.698V17.592ZM128.304 20H117.412L119.162 17.592H121.514C122.074 17.592 122.732 17.592 123.18 17.62C122.928 17.284 122.536 16.71 122.228 16.262L120.548 13.784L116.152 20H112.722L118.728 11.53C119.12 10.984 119.694 10.48 120.604 10.48C121.472 10.48 122.046 10.942 122.452 11.53L128.304 20ZM141.699 14.148C141.699 16.22 140.005 17.606 137.093 17.606H132.193V20H129.309V15.212H137.373C138.269 15.212 138.787 14.778 138.787 14.134C138.787 13.476 138.269 13.07 137.373 13.07H129.309L131.227 10.634H137.107C140.005 10.634 141.699 12.062 141.699 14.148Z" fill="white"/>
<path d="M-21 25H169" stroke="white"/>
<path d="M257.504 9.12C262.048 9.12 264.336 10.816 264.336 14.64C264.336 18.464 262.048 20.176 257.504 20.176C252.96 20.176 250.672 18.464 250.672 14.64C250.672 10.816 252.96 9.12 257.504 9.12ZM257.504 17.392C260.128 17.392 261.072 16.944 261.072 14.64C261.072 12.336 260.128 11.904 257.504 11.904C254.88 11.904 253.936 12.336 253.936 14.64C253.936 16.944 254.88 17.392 257.504 17.392ZM265.094 18.64C265.094 17.648 265.894 17.072 266.886 17.072C267.894 17.072 268.694 17.648 268.694 18.64C268.694 19.616 267.894 20.176 266.886 20.176C265.894 20.176 265.094 19.616 265.094 18.64ZM276.504 9.12C281.048 9.12 283.336 10.816 283.336 14.64C283.336 18.464 281.048 20.176 276.504 20.176C271.96 20.176 269.672 18.464 269.672 14.64C269.672 10.816 271.96 9.12 276.504 9.12ZM276.504 17.392C279.128 17.392 280.072 16.944 280.072 14.64C280.072 12.336 279.128 11.904 276.504 11.904C273.88 11.904 272.936 12.336 272.936 14.64C272.936 16.944 273.88 17.392 276.504 17.392ZM291.52 9.12C296.064 9.12 298.352 10.816 298.352 14.64C298.352 18.464 296.064 20.176 291.52 20.176C286.976 20.176 284.688 18.464 284.688 14.64C284.688 10.816 286.976 9.12 291.52 9.12ZM291.52 17.392C294.144 17.392 295.088 16.944 295.088 14.64C295.088 12.336 294.144 11.904 291.52 11.904C288.896 11.904 287.952 12.336 287.952 14.64C287.952 16.944 288.896 17.392 291.52 17.392ZM299.11 18.64C299.11 17.648 299.91 17.072 300.902 17.072C301.91 17.072 302.71 17.648 302.71 18.64C302.71 19.616 301.91 20.176 300.902 20.176C299.91 20.176 299.11 19.616 299.11 18.64ZM310.52 9.12C315.064 9.12 317.352 10.816 317.352 14.64C317.352 18.464 315.064 20.176 310.52 20.176C305.976 20.176 303.688 18.464 303.688 14.64C303.688 10.816 305.976 9.12 310.52 9.12ZM310.52 17.392C313.144 17.392 314.088 16.944 314.088 14.64C314.088 12.336 313.144 11.904 310.52 11.904C307.896 11.904 306.952 12.336 306.952 14.64C306.952 16.944 307.896 17.392 310.52 17.392ZM325.535 9.12C330.079 9.12 332.367 10.816 332.367 14.64C332.367 18.464 330.079 20.176 325.535 20.176C320.991 20.176 318.703 18.464 318.703 14.64C318.703 10.816 320.991 9.12 325.535 9.12ZM325.535 17.392C328.159 17.392 329.103 16.944 329.103 14.64C329.103 12.336 328.159 11.904 325.535 11.904C322.911 11.904 321.967 12.336 321.967 14.64C321.967 16.944 322.911 17.392 325.535 17.392ZM340.551 9.12C345.095 9.12 347.383 10.816 347.383 14.64C347.383 18.464 345.095 20.176 340.551 20.176C336.007 20.176 333.719 18.464 333.719 14.64C333.719 10.816 336.007 9.12 340.551 9.12ZM340.551 17.392C343.175 17.392 344.119 16.944 344.119 14.64C344.119 12.336 343.175 11.904 340.551 11.904C337.927 11.904 336.983 12.336 336.983 14.64C336.983 16.944 337.927 17.392 340.551 17.392Z" fill="white"/>
</g>
<g clip-path="url(#clip1_431_1208)">
<rect width="385" height="29" transform="translate(0 33)" fill="#3B3B3B"/>
<rect x="169" y="94.6191" width="258.213" height="201.958" transform="rotate(-60 169 94.6191)" fill="#525151"/>
<path d="M8.78 49.592H16.032L14.156 52H5.882V42.634H8.78V49.592ZM31.3864 52H20.4944L22.2444 49.592H24.5964C25.1564 49.592 25.8144 49.592 26.2624 49.62C26.0104 49.284 25.6184 48.71 25.3104 48.262L23.6304 45.784L19.2344 52H15.8044L21.8104 43.53C22.2024 42.984 22.7764 42.48 23.6864 42.48C24.5544 42.48 25.1284 42.942 25.5344 43.53L31.3864 52ZM36.0031 46.372H41.0991C43.3811 46.372 44.6131 47.226 44.6131 48.934C44.6131 50.852 43.4511 52 40.5951 52H31.8731L33.7351 49.592H40.8191C41.5051 49.592 41.8131 49.396 41.8131 48.906C41.8131 48.43 41.5051 48.234 40.8191 48.234H35.7231C33.3151 48.234 32.2091 47.156 32.2091 45.546C32.2091 43.782 33.3851 42.634 36.2271 42.634H44.3611L42.4991 45.07H36.0031C35.3311 45.07 35.0091 45.238 35.0091 45.714C35.0091 46.19 35.3311 46.372 36.0031 46.372ZM46.0596 42.634H56.6996L54.8236 45.07H51.4776V52H48.5796V45.07H44.1836L46.0596 42.634ZM65.8327 49.592H73.0847L71.2087 52H62.9347V42.634H65.8327V49.592ZM88.4391 52H77.5471L79.2971 49.592H81.6491C82.2091 49.592 82.8671 49.592 83.3151 49.62C83.0631 49.284 82.6711 48.71 82.3631 48.262L80.6831 45.784L76.2871 52H72.8571L78.8631 43.53C79.2551 42.984 79.8291 42.48 80.7391 42.48C81.6071 42.48 82.1811 42.942 82.5871 43.53L88.4391 52ZM101.834 46.148C101.834 48.22 100.14 49.606 97.2278 49.606H92.3278V52H89.4438V47.212H97.5078C98.4038 47.212 98.9218 46.778 98.9218 46.134C98.9218 45.476 98.4038 45.07 97.5078 45.07H89.4438L91.3618 42.634H97.2418C100.14 42.634 101.834 44.062 101.834 46.148Z" fill="white"/>
<path d="M-21 57H169" stroke="white"/>
<path d="M258.504 42.12C263.048 42.12 265.336 43.816 265.336 47.64C265.336 51.464 263.048 53.176 258.504 53.176C253.96 53.176 251.672 51.464 251.672 47.64C251.672 43.816 253.96 42.12 258.504 42.12ZM258.504 50.392C261.128 50.392 262.072 49.944 262.072 47.64C262.072 45.336 261.128 44.904 258.504 44.904C255.88 44.904 254.936 45.336 254.936 47.64C254.936 49.944 255.88 50.392 258.504 50.392ZM266.094 51.64C266.094 50.648 266.894 50.072 267.886 50.072C268.894 50.072 269.694 50.648 269.694 51.64C269.694 52.616 268.894 53.176 267.886 53.176C266.894 53.176 266.094 52.616 266.094 51.64ZM277.504 42.12C282.048 42.12 284.336 43.816 284.336 47.64C284.336 51.464 282.048 53.176 277.504 53.176C272.96 53.176 270.672 51.464 270.672 47.64C270.672 43.816 272.96 42.12 277.504 42.12ZM277.504 50.392C280.128 50.392 281.072 49.944 281.072 47.64C281.072 45.336 280.128 44.904 277.504 44.904C274.88 44.904 273.936 45.336 273.936 47.64C273.936 49.944 274.88 50.392 277.504 50.392ZM292.52 42.12C297.064 42.12 299.352 43.816 299.352 47.64C299.352 51.464 297.064 53.176 292.52 53.176C287.976 53.176 285.688 51.464 285.688 47.64C285.688 43.816 287.976 42.12 292.52 42.12ZM292.52 50.392C295.144 50.392 296.088 49.944 296.088 47.64C296.088 45.336 295.144 44.904 292.52 44.904C289.896 44.904 288.952 45.336 288.952 47.64C288.952 49.944 289.896 50.392 292.52 50.392ZM300.11 51.64C300.11 50.648 300.91 50.072 301.902 50.072C302.91 50.072 303.71 50.648 303.71 51.64C303.71 52.616 302.91 53.176 301.902 53.176C300.91 53.176 300.11 52.616 300.11 51.64ZM311.52 42.12C316.064 42.12 318.352 43.816 318.352 47.64C318.352 51.464 316.064 53.176 311.52 53.176C306.976 53.176 304.688 51.464 304.688 47.64C304.688 43.816 306.976 42.12 311.52 42.12ZM311.52 50.392C314.144 50.392 315.088 49.944 315.088 47.64C315.088 45.336 314.144 44.904 311.52 44.904C308.896 44.904 307.952 45.336 307.952 47.64C307.952 49.944 308.896 50.392 311.52 50.392ZM326.535 42.12C331.079 42.12 333.367 43.816 333.367 47.64C333.367 51.464 331.079 53.176 326.535 53.176C321.991 53.176 319.703 51.464 319.703 47.64C319.703 43.816 321.991 42.12 326.535 42.12ZM326.535 50.392C329.159 50.392 330.103 49.944 330.103 47.64C330.103 45.336 329.159 44.904 326.535 44.904C323.911 44.904 322.967 45.336 322.967 47.64C322.967 49.944 323.911 50.392 326.535 50.392ZM341.551 42.12C346.095 42.12 348.383 43.816 348.383 47.64C348.383 51.464 346.095 53.176 341.551 53.176C337.007 53.176 334.719 51.464 334.719 47.64C334.719 43.816 337.007 42.12 341.551 42.12ZM341.551 50.392C344.175 50.392 345.119 49.944 345.119 47.64C345.119 45.336 344.175 44.904 341.551 44.904C338.927 44.904 337.983 45.336 337.983 47.64C337.983 49.944 338.927 50.392 341.551 50.392Z" fill="white"/>
</g>
<g clip-path="url(#clip2_431_1208)">
<path d="M0 66H385V90C385 92.7614 382.761 95 380 95H5C2.23858 95 0 92.7614 0 90V66Z" fill="#3B3B3B"/>
<rect x="169" y="127.619" width="258.213" height="201.958" transform="rotate(-60 169 127.619)" fill="#525151"/>
<path d="M9.466 79.372H14.562C16.844 79.372 18.076 80.226 18.076 81.934C18.076 83.852 16.914 85 14.058 85H5.336L7.198 82.592H14.282C14.968 82.592 15.276 82.396 15.276 81.906C15.276 81.43 14.968 81.234 14.282 81.234H9.186C6.778 81.234 5.672 80.156 5.672 78.546C5.672 76.782 6.848 75.634 9.69 75.634H17.824L15.962 78.07H9.466C8.794 78.07 8.472 78.238 8.472 78.714C8.472 79.19 8.794 79.372 9.466 79.372ZM22.2745 82.592H30.2405L28.3785 85H19.3625V75.634H30.2125L28.3365 78.07H22.2745V79.19H29.6945L28.0285 81.318H22.2745V82.592ZM34.8137 79.372H39.9097C42.1917 79.372 43.4237 80.226 43.4237 81.934C43.4237 83.852 42.2617 85 39.4057 85H30.6837L32.5457 82.592H39.6297C40.3157 82.592 40.6237 82.396 40.6237 81.906C40.6237 81.43 40.3157 81.234 39.6297 81.234H34.5337C32.1257 81.234 31.0197 80.156 31.0197 78.546C31.0197 76.782 32.1957 75.634 35.0377 75.634H43.1717L41.3097 78.07H34.8137C34.1417 78.07 33.8197 78.238 33.8197 78.714C33.8197 79.19 34.1417 79.372 34.8137 79.372ZM48.2941 79.372H53.3901C55.6721 79.372 56.9041 80.226 56.9041 81.934C56.9041 83.852 55.7421 85 52.8861 85H44.1641L46.0261 82.592H53.1101C53.7961 82.592 54.1041 82.396 54.1041 81.906C54.1041 81.43 53.7961 81.234 53.1101 81.234H48.0141C45.6061 81.234 44.5001 80.156 44.5001 78.546C44.5001 76.782 45.6761 75.634 48.5181 75.634H56.6521L54.7901 78.07H48.2941C47.6221 78.07 47.3001 78.238 47.3001 78.714C47.3001 79.19 47.6221 79.372 48.2941 79.372ZM61.1306 75.634V85H58.2326V75.634H61.1306ZM69.4867 75.48C74.0367 75.48 76.3327 76.964 76.3327 80.31C76.3327 83.656 74.0367 85.154 69.4867 85.154C64.9227 85.154 62.6407 83.656 62.6407 80.31C62.6407 76.964 64.9227 75.48 69.4867 75.48ZM69.4867 82.718C72.3987 82.718 73.4487 82.326 73.4487 80.31C73.4487 78.294 72.3987 77.916 69.4867 77.916C66.5747 77.916 65.5247 78.294 65.5247 80.31C65.5247 82.326 66.5747 82.718 69.4867 82.718ZM87.2881 85.154C86.9241 85.154 86.5741 85.07 86.1261 84.65L80.3861 79.498V85H77.7541V77.23C77.7541 75.984 78.5101 75.48 79.3361 75.48C79.6861 75.48 80.0361 75.564 80.4981 75.984L86.2381 81.136V75.634H88.8841V83.39C88.8841 84.636 88.1281 85.154 87.2881 85.154ZM106.522 80.184C107.334 80.422 107.992 81.15 107.992 82.27C107.992 83.824 107.138 85 104.184 85H95.9523V79.302H104.24C104.66 79.302 105.052 79.148 105.052 78.672C105.052 78.21 104.646 78.07 104.24 78.07H95.9523L97.9123 75.634H104.114C106.354 75.634 107.796 76.502 107.796 78.224C107.796 79.33 107.166 79.946 106.522 80.184ZM104.198 81.304H98.8643V82.592H104.198C104.828 82.592 105.094 82.368 105.094 81.934C105.094 81.528 104.828 81.304 104.198 81.304ZM112.358 82.592H120.324L118.462 85H109.446V75.634H120.296L118.42 78.07H112.358V79.19H119.778L118.112 81.318H112.358V82.592ZM124.898 79.372H129.994C132.276 79.372 133.508 80.226 133.508 81.934C133.508 83.852 132.346 85 129.49 85H120.768L122.63 82.592H129.714C130.4 82.592 130.708 82.396 130.708 81.906C130.708 81.43 130.4 81.234 129.714 81.234H124.618C122.21 81.234 121.104 80.156 121.104 78.546C121.104 76.782 122.28 75.634 125.122 75.634H133.256L131.394 78.07H124.898C124.226 78.07 123.904 78.238 123.904 78.714C123.904 79.19 124.226 79.372 124.898 79.372ZM134.954 75.634H145.594L143.718 78.07H140.372V85H137.474V78.07H133.078L134.954 75.634Z" fill="white"/>
<line x1="-21" y1="89.5" x2="169" y2="89.5" stroke="#DF13F1"/>
<path d="M258.504 75.12C263.048 75.12 265.336 76.816 265.336 80.64C265.336 84.464 263.048 86.176 258.504 86.176C253.96 86.176 251.672 84.464 251.672 80.64C251.672 76.816 253.96 75.12 258.504 75.12ZM258.504 83.392C261.128 83.392 262.072 82.944 262.072 80.64C262.072 78.336 261.128 77.904 258.504 77.904C255.88 77.904 254.936 78.336 254.936 80.64C254.936 82.944 255.88 83.392 258.504 83.392ZM266.094 84.64C266.094 83.648 266.894 83.072 267.886 83.072C268.894 83.072 269.694 83.648 269.694 84.64C269.694 85.616 268.894 86.176 267.886 86.176C266.894 86.176 266.094 85.616 266.094 84.64ZM277.504 75.12C282.048 75.12 284.336 76.816 284.336 80.64C284.336 84.464 282.048 86.176 277.504 86.176C272.96 86.176 270.672 84.464 270.672 80.64C270.672 76.816 272.96 75.12 277.504 75.12ZM277.504 83.392C280.128 83.392 281.072 82.944 281.072 80.64C281.072 78.336 280.128 77.904 277.504 77.904C274.88 77.904 273.936 78.336 273.936 80.64C273.936 82.944 274.88 83.392 277.504 83.392ZM292.52 75.12C297.064 75.12 299.352 76.816 299.352 80.64C299.352 84.464 297.064 86.176 292.52 86.176C287.976 86.176 285.688 84.464 285.688 80.64C285.688 76.816 287.976 75.12 292.52 75.12ZM292.52 83.392C295.144 83.392 296.088 82.944 296.088 80.64C296.088 78.336 295.144 77.904 292.52 77.904C289.896 77.904 288.952 78.336 288.952 80.64C288.952 82.944 289.896 83.392 292.52 83.392ZM300.11 84.64C300.11 83.648 300.91 83.072 301.902 83.072C302.91 83.072 303.71 83.648 303.71 84.64C303.71 85.616 302.91 86.176 301.902 86.176C300.91 86.176 300.11 85.616 300.11 84.64ZM311.52 75.12C316.064 75.12 318.352 76.816 318.352 80.64C318.352 84.464 316.064 86.176 311.52 86.176C306.976 86.176 304.688 84.464 304.688 80.64C304.688 76.816 306.976 75.12 311.52 75.12ZM311.52 83.392C314.144 83.392 315.088 82.944 315.088 80.64C315.088 78.336 314.144 77.904 311.52 77.904C308.896 77.904 307.952 78.336 307.952 80.64C307.952 82.944 308.896 83.392 311.52 83.392ZM326.535 75.12C331.079 75.12 333.367 76.816 333.367 80.64C333.367 84.464 331.079 86.176 326.535 86.176C321.991 86.176 319.703 84.464 319.703 80.64C319.703 76.816 321.991 75.12 326.535 75.12ZM326.535 83.392C329.159 83.392 330.103 82.944 330.103 80.64C330.103 78.336 329.159 77.904 326.535 77.904C323.911 77.904 322.967 78.336 322.967 80.64C322.967 82.944 323.911 83.392 326.535 83.392ZM341.551 75.12C346.095 75.12 348.383 76.816 348.383 80.64C348.383 84.464 346.095 86.176 341.551 86.176C337.007 86.176 334.719 84.464 334.719 80.64C334.719 76.816 337.007 75.12 341.551 75.12ZM341.551 83.392C344.175 83.392 345.119 82.944 345.119 80.64C345.119 78.336 344.175 77.904 341.551 77.904C338.927 77.904 337.983 78.336 337.983 80.64C337.983 82.944 338.927 83.392 341.551 83.392Z" fill="white"/>
</g>
<defs>
<clipPath id="clip0_431_1208">
<path d="M0 5C0 2.23858 2.23858 0 5 0H380C382.761 0 385 2.23858 385 5V29H0V5Z" fill="white"/>
</clipPath>
<clipPath id="clip1_431_1208">
<rect width="385" height="29" fill="white" transform="translate(0 33)"/>
</clipPath>
<clipPath id="clip2_431_1208">
<path d="M0 66H385V90C385 92.7614 382.761 95 380 95H5C2.23858 95 0 92.7614 0 90V66Z" fill="white"/>
</clipPath>
</defs>
</svg>
