<svg xmlns="http://www.w3.org/2000/svg" xmlns:xlink="http://www.w3.org/1999/xlink" width="1200" zoomAndPan="magnify" viewBox="0 0 900 374.999991" height="500" preserveAspectRatio="xMidYMid meet" version="1.0"><defs><clipPath id="9f3b3c6a85"><path d="M 540 314.742188 L 576 314.742188 L 576 374.742188 L 540 374.742188 Z M 540 314.742188 " clip-rule="nonzero"/></clipPath><clipPath id="224db70892"><path d="M 563 314.742188 L 601 314.742188 L 601 374.742188 L 563 374.742188 Z M 563 314.742188 " clip-rule="nonzero"/></clipPath><clipPath id="8314583ee6"><path d="M 587 314.742188 L 626 314.742188 L 626 374.742188 L 587 374.742188 Z M 587 314.742188 " clip-rule="nonzero"/></clipPath><clipPath id="7919466d8a"><path d="M 611 314.742188 L 651 314.742188 L 651 374.742188 L 611 374.742188 Z M 611 314.742188 " clip-rule="nonzero"/></clipPath><clipPath id="abd7cd1e25"><path d="M 635 314.742188 L 676 314.742188 L 676 374.742188 L 635 374.742188 Z M 635 314.742188 " clip-rule="nonzero"/></clipPath><clipPath id="b492fba35d"><path d="M 659 314.742188 L 701 314.742188 L 701 374.742188 L 659 374.742188 Z M 659 314.742188 " clip-rule="nonzero"/></clipPath><clipPath id="fd01a0f380"><path d="M 682 314.742188 L 726 314.742188 L 726 374.742188 L 682 374.742188 Z M 682 314.742188 " clip-rule="nonzero"/></clipPath><clipPath id="bea32c4e76"><path d="M 706 314.742188 L 751 314.742188 L 751 374.742188 L 706 374.742188 Z M 706 314.742188 " clip-rule="nonzero"/></clipPath><clipPath id="a76db1778e"><path d="M 730 314.742188 L 776 314.742188 L 776 374.742188 L 730 374.742188 Z M 730 314.742188 " clip-rule="nonzero"/></clipPath><clipPath id="2cd9e32676"><path d="M 754 314.742188 L 801 314.742188 L 801 374.742188 L 754 374.742188 Z M 754 314.742188 " clip-rule="nonzero"/></clipPath><clipPath id="8228b391e7"><path d="M 778 314.742188 L 826 314.742188 L 826 374.742188 L 778 374.742188 Z M 778 314.742188 " clip-rule="nonzero"/></clipPath><clipPath id="c646753333"><path d="M 802 314.742188 L 851 314.742188 L 851 374.742188 L 802 374.742188 Z M 802 314.742188 " clip-rule="nonzero"/></clipPath><clipPath id="fbadc402a4"><path d="M 825 314.742188 L 876 314.742188 L 876 374.742188 L 825 374.742188 Z M 825 314.742188 " clip-rule="nonzero"/></clipPath><clipPath id="c9d0428585"><path d="M 849 314.742188 L 900 314.742188 L 900 374.742188 L 849 374.742188 Z M 849 314.742188 " clip-rule="nonzero"/></clipPath><clipPath id="54459a539b"><path d="M 873 314.742188 L 900 314.742188 L 900 374.742188 L 873 374.742188 Z M 873 314.742188 " clip-rule="nonzero"/></clipPath><clipPath id="eb1edd79b8"><path d="M 897 314.742188 L 900 314.742188 L 900 374.742188 L 897 374.742188 Z M 897 314.742188 " clip-rule="nonzero"/></clipPath></defs><g clip-path="url(#9f3b3c6a85)"><path fill="#9d191d" d="M 574.804688 314.742188 L 540.011719 375 L 540.953125 375 L 575.738281 314.742188 Z M 574.804688 314.742188 " fill-opacity="1" fill-rule="evenodd"/></g><g clip-path="url(#224db70892)"><path fill="#9d191d" d="M 598.621094 314.742188 C 587.023438 334.828125 575.425781 354.914062 563.828125 375 C 564.535156 375 565.242188 375 565.9375 375 C 577.535156 354.914062 589.132812 334.828125 600.730469 314.742188 C 600.023438 314.742188 599.320312 314.742188 598.621094 314.742188 Z M 598.621094 314.742188 " fill-opacity="1" fill-rule="evenodd"/></g><g clip-path="url(#8314583ee6)"><path fill="#9d191d" d="M 622.4375 314.742188 C 610.839844 334.828125 599.242188 354.914062 587.65625 375 C 588.746094 375 589.839844 375 590.933594 375 C 602.53125 354.914062 614.128906 334.828125 625.714844 314.742188 C 624.625 314.742188 623.53125 314.742188 622.4375 314.742188 Z M 622.4375 314.742188 " fill-opacity="1" fill-rule="evenodd"/></g><g clip-path="url(#7919466d8a)"><path fill="#9d191d" d="M 646.257812 314.742188 C 634.660156 334.828125 623.0625 354.914062 611.472656 375 C 612.949219 375 614.4375 375 615.917969 375 C 627.515625 354.914062 639.113281 334.828125 650.710938 314.742188 C 649.222656 314.742188 647.742188 314.742188 646.257812 314.742188 Z M 646.257812 314.742188 " fill-opacity="1" fill-rule="evenodd"/></g><g clip-path="url(#abd7cd1e25)"><path fill="#9d191d" d="M 670.074219 314.742188 C 658.484375 334.828125 646.886719 354.914062 635.289062 375 C 637.164062 375 639.039062 375 640.910156 375 C 652.507812 354.914062 664.097656 334.828125 675.695312 314.742188 C 673.820312 314.742188 671.949219 314.742188 670.074219 314.742188 Z M 670.074219 314.742188 " fill-opacity="1" fill-rule="evenodd"/></g><g clip-path="url(#b492fba35d)"><path fill="#9d191d" d="M 693.898438 314.742188 C 682.300781 334.828125 670.703125 354.914062 659.105469 375 C 661.367188 375 663.636719 375 665.898438 375 C 677.496094 354.914062 689.09375 334.828125 700.691406 314.742188 C 698.421875 314.742188 696.160156 314.742188 693.898438 314.742188 Z M 693.898438 314.742188 " fill-opacity="1" fill-rule="evenodd"/></g><g clip-path="url(#fd01a0f380)"><path fill="#9d191d" d="M 717.71875 314.742188 C 706.121094 334.828125 694.523438 354.914062 682.925781 375 C 685.578125 375 688.234375 375 690.890625 375 C 702.480469 354.914062 714.078125 334.828125 725.675781 314.742188 C 723.019531 314.742188 720.371094 314.742188 717.71875 314.742188 Z M 717.71875 314.742188 " fill-opacity="1" fill-rule="evenodd"/></g><g clip-path="url(#bea32c4e76)"><path fill="#9d191d" d="M 741.535156 314.742188 C 729.9375 334.828125 718.339844 354.914062 706.75 375 C 709.792969 375 712.835938 375 715.875 375 C 727.472656 354.914062 739.070312 334.828125 750.667969 314.742188 C 747.617188 314.742188 744.578125 314.742188 741.535156 314.742188 Z M 741.535156 314.742188 " fill-opacity="1" fill-rule="evenodd"/></g><g clip-path="url(#a76db1778e)"><path fill="#9d191d" d="M 765.351562 314.742188 C 753.753906 334.828125 742.164062 354.914062 730.566406 375 C 733.996094 375 737.433594 375 740.863281 375 C 752.460938 354.914062 764.058594 334.828125 775.65625 314.742188 C 772.21875 314.742188 768.789062 314.742188 765.351562 314.742188 Z M 765.351562 314.742188 " fill-opacity="1" fill-rule="evenodd"/></g><g clip-path="url(#2cd9e32676)"><path fill="#9d191d" d="M 789.175781 314.742188 C 777.578125 334.828125 765.980469 354.914062 754.382812 375 C 758.207031 375 762.03125 375 765.855469 375 C 777.453125 354.914062 789.050781 334.828125 800.648438 314.742188 C 796.816406 314.742188 792.992188 314.742188 789.175781 314.742188 Z M 789.175781 314.742188 " fill-opacity="1" fill-rule="evenodd"/></g><g clip-path="url(#8228b391e7)"><path fill="#9d191d" d="M 812.996094 314.742188 C 801.398438 334.828125 789.800781 354.914062 778.203125 375 C 782.421875 375 786.632812 375 790.839844 375 C 802.4375 354.914062 814.039062 334.828125 825.636719 314.742188 C 821.425781 314.742188 817.207031 314.742188 812.996094 314.742188 Z M 812.996094 314.742188 " fill-opacity="1" fill-rule="evenodd"/></g><g clip-path="url(#c646753333)"><path fill="#9d191d" d="M 836.8125 314.742188 C 825.214844 334.828125 813.617188 354.914062 802.019531 375 C 806.625 375 811.230469 375 815.835938 375 C 827.433594 354.914062 839.03125 334.828125 850.621094 314.742188 C 846.023438 314.742188 841.417969 314.742188 836.8125 314.742188 Z M 836.8125 314.742188 " fill-opacity="1" fill-rule="evenodd"/></g><g clip-path="url(#fbadc402a4)"><path fill="#9d191d" d="M 860.628906 314.742188 C 849.03125 334.828125 837.433594 354.914062 825.84375 375 C 830.835938 375 835.828125 375 840.820312 375 C 852.417969 354.914062 864.015625 334.828125 875.613281 314.742188 C 870.621094 314.742188 865.621094 314.742188 860.628906 314.742188 Z M 860.628906 314.742188 " fill-opacity="1" fill-rule="evenodd"/></g><g clip-path="url(#c9d0428585)"><path fill="#9d191d" d="M 884.445312 314.742188 C 872.859375 334.828125 861.261719 354.914062 849.664062 375 C 855.042969 375 860.429688 375 865.816406 375 C 877.414062 354.914062 889.003906 334.828125 900.601562 314.742188 C 895.222656 314.742188 889.835938 314.742188 884.445312 314.742188 Z M 884.445312 314.742188 " fill-opacity="1" fill-rule="evenodd"/></g><g clip-path="url(#54459a539b)"><path fill="#9d191d" d="M 908.273438 314.742188 C 896.675781 334.828125 885.078125 354.914062 873.480469 375 C 879.253906 375 885.027344 375 890.800781 375 C 902.398438 354.914062 913.996094 334.828125 925.59375 314.742188 C 919.820312 314.742188 914.046875 314.742188 908.273438 314.742188 Z M 908.273438 314.742188 " fill-opacity="1" fill-rule="evenodd"/></g><g clip-path="url(#eb1edd79b8)"><path fill="#9d191d" d="M 932.089844 314.742188 C 920.492188 334.828125 908.894531 354.914062 897.296875 375 C 903.464844 375 909.625 375 915.792969 375 C 927.382812 354.914062 938.980469 334.828125 950.578125 314.742188 C 944.417969 314.742188 938.25 314.742188 932.089844 314.742188 Z M 932.089844 314.742188 " fill-opacity="1" fill-rule="evenodd"/></g></svg>