<svg xmlns="http://www.w3.org/2000/svg" xmlns:xlink="http://www.w3.org/1999/xlink" width="1200" zoomAndPan="magnify" viewBox="0 0 900 374.999991" height="500" preserveAspectRatio="xMidYMid meet" version="1.0"><path fill="#211a19" d="M -43.601562 28.605469 L 114.511719 -131.613281 L 104.09375 -131.613281 L -43.601562 14.460938 L -43.601562 28.605469 " fill-opacity="1" fill-rule="nonzero"/><path fill="#211a19" d="M -43.601562 58.605469 L 144.125 -131.613281 L 134.066406 -131.613281 L -43.601562 44.105469 L -43.601562 58.605469 " fill-opacity="1" fill-rule="nonzero"/><path fill="#211a19" d="M -43.601562 88.613281 L 173.734375 -131.613281 L 164.035156 -131.613281 L -43.601562 73.746094 L -43.601562 88.613281 " fill-opacity="1" fill-rule="nonzero"/><path fill="#211a19" d="M -43.601562 118.617188 L 203.34375 -131.613281 L 194.007812 -131.613281 L -43.601562 103.390625 L -43.601562 118.617188 " fill-opacity="1" fill-rule="nonzero"/><path fill="#211a19" d="M -43.601562 148.625 L 232.957031 -131.613281 L 223.980469 -131.613281 L -43.601562 133.03125 L -43.601562 148.625 " fill-opacity="1" fill-rule="nonzero"/><path fill="#211a19" d="M -43.601562 178.628906 L 262.566406 -131.613281 L 253.953125 -131.613281 L -43.601562 162.675781 L -43.601562 178.628906 " fill-opacity="1" fill-rule="nonzero"/><path fill="#211a19" d="M -43.601562 208.632812 L 292.179688 -131.613281 L 283.925781 -131.613281 L -43.601562 192.316406 L -43.601562 208.632812 " fill-opacity="1" fill-rule="nonzero"/><path fill="#211a19" d="M -43.601562 238.640625 L 321.789062 -131.613281 L 313.898438 -131.613281 L -43.601562 221.960938 L -43.601562 238.640625 " fill-opacity="1" fill-rule="nonzero"/><path fill="#211a19" d="M -43.601562 268.644531 L 351.402344 -131.613281 L 343.871094 -131.613281 L -43.601562 251.609375 L -43.601562 268.644531 " fill-opacity="1" fill-rule="nonzero"/><path fill="#211a19" d="M -43.601562 298.648438 L 381.011719 -131.613281 L 373.839844 -131.613281 L -43.601562 281.25 L -43.601562 298.648438 " fill-opacity="1" fill-rule="nonzero"/><path fill="#211a19" d="M -43.601562 328.65625 L 410.625 -131.613281 L 403.8125 -131.613281 L -43.601562 310.894531 L -43.601562 328.65625 " fill-opacity="1" fill-rule="nonzero"/><path fill="#211a19" d="M -43.601562 358.660156 L 440.234375 -131.613281 L 433.785156 -131.613281 L -43.601562 340.535156 L -43.601562 358.660156 " fill-opacity="1" fill-rule="nonzero"/><path fill="#211a19" d="M -43.601562 388.664062 L 469.847656 -131.613281 L 463.757812 -131.613281 L -43.601562 370.179688 L -43.601562 388.664062 " fill-opacity="1" fill-rule="nonzero"/><path fill="#211a19" d="M -43.601562 418.671875 L 499.457031 -131.613281 L 493.730469 -131.613281 L -43.601562 399.824219 L -43.601562 418.671875 " fill-opacity="1" fill-rule="nonzero"/><path fill="#211a19" d="M -43.601562 448.675781 L 529.070312 -131.613281 L 523.699219 -131.613281 L -43.601562 429.464844 L -43.601562 448.675781 " fill-opacity="1" fill-rule="nonzero"/><path fill="#211a19" d="M -43.601562 478.679688 L 558.679688 -131.613281 L 553.671875 -131.613281 L -43.601562 459.109375 L -43.601562 478.679688 " fill-opacity="1" fill-rule="nonzero"/><path fill="#211a19" d="M -43.601562 508.683594 L 588.289062 -131.613281 L 583.644531 -131.613281 L -43.601562 488.753906 L -43.601562 508.683594 " fill-opacity="1" fill-rule="nonzero"/><path fill="#211a19" d="M -43.601562 538.6875 L 617.902344 -131.613281 L 613.617188 -131.613281 L -43.601562 518.394531 L -43.601562 538.6875 " fill-opacity="1" fill-rule="nonzero"/><path fill="#211a19" d="M -43.601562 568.695312 L 647.511719 -131.613281 L 643.585938 -131.613281 L -43.601562 548.039062 L -43.601562 568.695312 " fill-opacity="1" fill-rule="nonzero"/><path fill="#211a19" d="M -43.601562 598.699219 L 677.128906 -131.613281 L 673.558594 -131.613281 L -43.601562 577.683594 L -43.601562 598.699219 " fill-opacity="1" fill-rule="nonzero"/><path fill="#211a19" d="M -43.601562 628.707031 L 706.738281 -131.613281 L 703.53125 -131.613281 L -43.601562 607.324219 L -43.601562 628.707031 " fill-opacity="1" fill-rule="nonzero"/><path fill="#211a19" d="M -43.601562 658.710938 L 736.34375 -131.613281 L 733.503906 -131.613281 L -43.601562 636.96875 L -43.601562 658.710938 " fill-opacity="1" fill-rule="nonzero"/><path fill="#211a19" d="M -43.601562 688.71875 L 765.960938 -131.613281 L 763.476562 -131.613281 L -43.601562 666.613281 L -43.601562 688.71875 " fill-opacity="1" fill-rule="nonzero"/><path fill="#211a19" d="M -43.601562 718.71875 L 795.566406 -131.613281 L 793.445312 -131.613281 L -43.601562 696.253906 L -43.601562 718.71875 " fill-opacity="1" fill-rule="nonzero"/><path fill="#211a19" d="M -43.601562 748.722656 L 825.183594 -131.613281 L 823.417969 -131.613281 L -43.601562 725.894531 L -43.601562 748.722656 " fill-opacity="1" fill-rule="nonzero"/><path fill="#211a19" d="M -43.601562 778.730469 L 854.792969 -131.613281 L 853.390625 -131.613281 L -43.601562 755.539062 L -43.601562 778.730469 " fill-opacity="1" fill-rule="nonzero"/><path fill="#211a19" d="M -43.601562 808.734375 L 884.40625 -131.613281 L 883.363281 -131.613281 L -43.601562 785.183594 L -43.601562 808.734375 " fill-opacity="1" fill-rule="nonzero"/><path fill="#211a19" d="M -43.601562 838.742188 L 914.015625 -131.613281 L 913.339844 -131.613281 L -43.601562 814.828125 L -43.601562 838.742188 " fill-opacity="1" fill-rule="nonzero"/><path fill="#211a19" d="M -43.601562 868.746094 L 943.625 -131.613281 L 943.3125 -131.613281 L -43.601562 844.46875 L -43.601562 868.746094 " fill-opacity="1" fill-rule="nonzero"/><path fill="#211a19" d="M -16.347656 871.132812 L 959.144531 -117.335938 L 959.144531 -117.636719 L -40.589844 871.132812 L -16.347656 871.132812 " fill-opacity="1" fill-rule="nonzero"/><path fill="#211a19" d="M 13.261719 871.132812 L 959.144531 -87.328125 L 959.144531 -87.992188 L -10.621094 871.132812 L 13.261719 871.132812 " fill-opacity="1" fill-rule="nonzero"/><path fill="#211a19" d="M 42.875 871.132812 L 959.144531 -57.324219 L 959.144531 -58.347656 L 19.351562 871.132812 L 42.875 871.132812 " fill-opacity="1" fill-rule="nonzero"/><path fill="#211a19" d="M 72.484375 871.132812 L 959.144531 -27.320312 L 959.144531 -28.707031 L 49.324219 871.132812 L 72.484375 871.132812 " fill-opacity="1" fill-rule="nonzero"/><path fill="#211a19" d="M 102.097656 871.132812 L 959.144531 2.6875 L 959.144531 0.9375 L 79.296875 871.132812 L 102.097656 871.132812 " fill-opacity="1" fill-rule="nonzero"/><path fill="#211a19" d="M 131.707031 871.132812 L 959.144531 32.6875 L 959.144531 30.578125 L 109.269531 871.132812 L 131.707031 871.132812 " fill-opacity="1" fill-rule="nonzero"/><path fill="#211a19" d="M 161.320312 871.132812 L 959.144531 62.699219 L 959.144531 60.226562 L 139.242188 871.132812 L 161.320312 871.132812 " fill-opacity="1" fill-rule="nonzero"/><path fill="#211a19" d="M 190.929688 871.132812 L 959.144531 92.699219 L 959.144531 89.863281 L 169.210938 871.132812 L 190.929688 871.132812 " fill-opacity="1" fill-rule="nonzero"/><path fill="#211a19" d="M 220.542969 871.132812 L 959.144531 122.703125 L 959.144531 119.511719 L 199.183594 871.132812 L 220.542969 871.132812 " fill-opacity="1" fill-rule="nonzero"/><path fill="#211a19" d="M 250.152344 871.132812 L 959.144531 152.710938 L 959.144531 149.15625 L 229.15625 871.132812 L 250.152344 871.132812 " fill-opacity="1" fill-rule="nonzero"/><path fill="#211a19" d="M 279.761719 871.132812 L 959.144531 182.714844 L 959.144531 178.796875 L 259.128906 871.132812 L 279.761719 871.132812 " fill-opacity="1" fill-rule="nonzero"/><path fill="#211a19" d="M 309.375 871.132812 L 959.144531 212.722656 L 959.144531 208.441406 L 289.101562 871.132812 L 309.375 871.132812 " fill-opacity="1" fill-rule="nonzero"/><path fill="#211a19" d="M 338.984375 871.132812 L 959.144531 242.726562 L 959.144531 238.082031 L 319.074219 871.132812 L 338.984375 871.132812 " fill-opacity="1" fill-rule="nonzero"/><path fill="#211a19" d="M 368.597656 871.132812 L 959.144531 272.734375 L 959.144531 267.726562 L 349.042969 871.132812 L 368.597656 871.132812 " fill-opacity="1" fill-rule="nonzero"/><path fill="#211a19" d="M 398.207031 871.132812 L 959.144531 302.738281 L 959.144531 297.371094 L 379.015625 871.132812 L 398.207031 871.132812 " fill-opacity="1" fill-rule="nonzero"/><path fill="#211a19" d="M 427.820312 871.132812 L 959.144531 332.742188 L 959.144531 327.011719 L 408.988281 871.132812 L 427.820312 871.132812 " fill-opacity="1" fill-rule="nonzero"/><path fill="#211a19" d="M 457.429688 871.132812 L 959.144531 362.746094 L 959.144531 356.65625 L 438.960938 871.132812 L 457.429688 871.132812 " fill-opacity="1" fill-rule="nonzero"/></svg>