<svg xmlns="http://www.w3.org/2000/svg" xmlns:xlink="http://www.w3.org/1999/xlink" width="300" zoomAndPan="magnify" viewBox="0 0 224.87999 225" height="300" preserveAspectRatio="xMidYMid meet" version="1.0"><defs><clipPath id="d35bca7cc7"><path d="M 109 194 L 132 194 L 132 224.9375 L 109 224.9375 Z M 109 194 " clip-rule="nonzero"/></clipPath><clipPath id="cbcfc5733a"><path d="M 165 0.0585938 L 187 0.0585938 L 187 18 L 165 18 Z M 165 0.0585938 " clip-rule="nonzero"/></clipPath><clipPath id="3065e96122"><path d="M 211 59 L 220.523438 59 L 220.523438 69 L 211 69 Z M 211 59 " clip-rule="nonzero"/></clipPath><clipPath id="5b797f0c39"><path d="M 4.636719 197 L 20 197 L 20 205 L 4.636719 205 Z M 4.636719 197 " clip-rule="nonzero"/></clipPath></defs><path fill="#9d191d" d="M 165.214844 121.507812 L 158.582031 144.960938 L 149.632812 126.40625 Z M 165.214844 121.507812 " fill-opacity="1" fill-rule="nonzero"/><path fill="#9d191d" d="M 155.050781 160.273438 L 136.660156 184.3125 L 119.859375 154.222656 Z M 155.050781 160.273438 " fill-opacity="1" fill-rule="nonzero"/><path fill="#9d191d" d="M 194.785156 54.40625 L 207.222656 82.0625 L 173.535156 73.273438 Z M 194.785156 54.40625 " fill-opacity="1" fill-rule="nonzero"/><g clip-path="url(#d35bca7cc7)"><path fill="#9d191d" d="M 118.039062 194.566406 L 131.105469 221.121094 L 109.695312 224.921875 Z M 118.039062 194.566406 " fill-opacity="1" fill-rule="nonzero"/></g><path fill="#9d191d" d="M 167.578125 87.820312 L 169.847656 105.519531 L 153.074219 93.308594 Z M 167.578125 87.820312 " fill-opacity="1" fill-rule="nonzero"/><path fill="#9d191d" d="M 215.25 21.507812 L 209.269531 42.464844 L 180.933594 26.679688 Z M 215.25 21.507812 " fill-opacity="1" fill-rule="nonzero"/><path fill="#9d191d" d="M 180.890625 43.433594 L 178.078125 49.726562 L 172.121094 42.488281 Z M 180.890625 43.433594 " fill-opacity="1" fill-rule="nonzero"/><path fill="#9d191d" d="M 194.652344 99.625 L 185.523438 100.617188 L 187.34375 88.40625 Z M 194.652344 99.625 " fill-opacity="1" fill-rule="nonzero"/><path fill="#9d191d" d="M 140.707031 107.835938 L 148.777344 117.707031 L 134.613281 109.8125 Z M 140.707031 107.835938 " fill-opacity="1" fill-rule="nonzero"/><path fill="#9d191d" d="M 177.292969 123.597656 L 188.355469 129.757812 L 179.339844 132.074219 Z M 177.292969 123.597656 " fill-opacity="1" fill-rule="nonzero"/><path fill="#9d191d" d="M 161.867188 51.886719 L 154.894531 77.769531 L 139.964844 54.5625 Z M 161.867188 51.886719 " fill-opacity="1" fill-rule="nonzero"/><path fill="#9d191d" d="M 123.910156 122.855469 L 124.246094 144.488281 L 142.820312 133.402344 Z M 123.910156 122.855469 " fill-opacity="1" fill-rule="nonzero"/><path fill="#9d191d" d="M 80.285156 168.886719 L 83.859375 180.152344 L 72.527344 173.832031 Z M 80.285156 168.886719 " fill-opacity="1" fill-rule="nonzero"/><path fill="#9d191d" d="M 141.71875 197.804688 L 142.011719 206.886719 L 152.355469 203.71875 Z M 141.71875 197.804688 " fill-opacity="1" fill-rule="nonzero"/><path fill="#9d191d" d="M 169.847656 160.476562 L 157.546875 168.707031 L 168.453125 174.777344 Z M 169.847656 160.476562 " fill-opacity="1" fill-rule="nonzero"/><g clip-path="url(#cbcfc5733a)"><path fill="#9d191d" d="M 181.765625 0.078125 L 165.734375 12.691406 L 186.105469 17.414062 Z M 181.765625 0.078125 " fill-opacity="1" fill-rule="nonzero"/></g><g clip-path="url(#3065e96122)"><path fill="#9d191d" d="M 220.242188 59.53125 L 219.230469 68.75 L 211.269531 59.417969 Z M 220.242188 59.53125 " fill-opacity="1" fill-rule="nonzero"/></g><path fill="#9d191d" d="M 156.042969 23.753906 L 145.046875 27.398438 L 149.183594 19.933594 Z M 156.042969 23.753906 " fill-opacity="1" fill-rule="nonzero"/><path fill="#9d191d" d="M 205.0625 94.160156 L 211.808594 87.6875 L 211.40625 97.691406 Z M 205.0625 94.160156 " fill-opacity="1" fill-rule="nonzero"/><path fill="#9d191d" d="M 97.800781 144.871094 L 104.726562 140.664062 L 96.453125 153.4375 Z M 97.800781 144.871094 " fill-opacity="1" fill-rule="nonzero"/><path fill="#9d191d" d="M 113.945312 110.960938 L 96.453125 115.59375 L 102.34375 105 Z M 113.945312 110.960938 " fill-opacity="1" fill-rule="nonzero"/><path fill="#9d191d" d="M 137.511719 76.082031 L 135.644531 91.980469 L 128.855469 82.378906 Z M 137.511719 76.082031 " fill-opacity="1" fill-rule="nonzero"/><path fill="#9d191d" d="M 75.15625 130.65625 L 74.953125 153.144531 L 52.21875 145.070312 Z M 75.15625 130.65625 " fill-opacity="1" fill-rule="nonzero"/><path fill="#9d191d" d="M 101.535156 168.773438 L 98.296875 174.550781 L 109.496094 173.203125 Z M 101.535156 168.773438 " fill-opacity="1" fill-rule="nonzero"/><path fill="#9d191d" d="M 59.460938 170.664062 L 52.488281 184.289062 L 45.273438 166.703125 Z M 59.460938 170.664062 " fill-opacity="1" fill-rule="nonzero"/><path fill="#9d191d" d="M 87.390625 199.804688 L 81.835938 217.457031 L 75 199.039062 Z M 87.390625 199.804688 " fill-opacity="1" fill-rule="nonzero"/><path fill="#9d191d" d="M 56.628906 209.96875 L 48.488281 207.878906 L 59.4375 196.835938 Z M 56.628906 209.96875 " fill-opacity="1" fill-rule="nonzero"/><path fill="#9d191d" d="M 36.613281 189.328125 L 29.171875 181.523438 L 29.710938 192.925781 Z M 36.613281 189.328125 " fill-opacity="1" fill-rule="nonzero"/><path fill="#9d191d" d="M 29.351562 214.445312 L 52.671875 220.964844 L 26.292969 223.640625 Z M 29.351562 214.445312 " fill-opacity="1" fill-rule="nonzero"/><g clip-path="url(#5b797f0c39)"><path fill="#9d191d" d="M 19.546875 197.625 L 19.929688 204.886719 L 4.636719 199.152344 Z M 19.546875 197.625 " fill-opacity="1" fill-rule="nonzero"/></g></svg>