<svg xmlns="http://www.w3.org/2000/svg" xmlns:xlink="http://www.w3.org/1999/xlink" width="300" zoomAndPan="magnify" viewBox="0 0 224.87999 225" height="300" preserveAspectRatio="xMidYMid meet" version="1.0"><defs><filter x="0%" y="0%" width="100%" height="100%" id="763dfb1392"><feColorMatrix values="0 0 0 0 1 0 0 0 0 1 0 0 0 0 1 0 0 0 1 0" color-interpolation-filters="sRGB"/></filter><mask id="d204629cf8"><g filter="url(#763dfb1392)"><rect x="-22.487999" width="269.855988" fill="#000000" y="-22.5" height="270" fill-opacity="0.68"/></g></mask><clipPath id="663069514f"><path d="M 101 187 L 123 187 L 123 216.453125 L 101 216.453125 Z M 101 187 " clip-rule="nonzero"/></clipPath><clipPath id="68dfb5caf6"><path d="M 155 0.570312 L 176 0.570312 L 176 18 L 155 18 Z M 155 0.570312 " clip-rule="nonzero"/></clipPath><clipPath id="47f05d1ecf"><path d="M 199 57 L 207.851562 57 L 207.851562 67 L 199 67 Z M 199 57 " clip-rule="nonzero"/></clipPath><clipPath id="b8d9ae0f4e"><path d="M 0.960938 190 L 16 190 L 16 198 L 0.960938 198 Z M 0.960938 190 " clip-rule="nonzero"/></clipPath><clipPath id="42f41edcca"><rect x="0" width="209" y="0" height="217"/></clipPath></defs><g mask="url(#d204629cf8)"><g transform="matrix(1, 0, 0, 1, 8, 4)"><g clip-path="url(#42f41edcca)"><path fill="#9d191d" d="M 155.09375 117.144531 L 148.726562 139.65625 L 140.136719 121.847656 Z M 155.09375 117.144531 " fill-opacity="1" fill-rule="nonzero"/><path fill="#9d191d" d="M 145.335938 154.355469 L 127.679688 177.429688 L 111.558594 148.550781 Z M 145.335938 154.355469 " fill-opacity="1" fill-rule="nonzero"/><path fill="#9d191d" d="M 183.476562 52.738281 L 195.414062 79.285156 L 163.078125 70.847656 Z M 183.476562 52.738281 " fill-opacity="1" fill-rule="nonzero"/><g clip-path="url(#663069514f)"><path fill="#9d191d" d="M 109.808594 187.269531 L 122.351562 212.761719 L 101.800781 216.410156 Z M 109.808594 187.269531 " fill-opacity="1" fill-rule="nonzero"/></g><path fill="#9d191d" d="M 157.359375 84.8125 L 159.539062 101.796875 L 143.4375 90.078125 Z M 157.359375 84.8125 " fill-opacity="1" fill-rule="nonzero"/><path fill="#9d191d" d="M 203.117188 21.160156 L 197.375 41.277344 L 170.179688 26.125 Z M 203.117188 21.160156 " fill-opacity="1" fill-rule="nonzero"/><path fill="#9d191d" d="M 170.136719 42.203125 L 167.4375 48.246094 L 161.71875 41.296875 Z M 170.136719 42.203125 " fill-opacity="1" fill-rule="nonzero"/><path fill="#9d191d" d="M 183.347656 96.144531 L 174.582031 97.09375 L 176.332031 85.371094 Z M 183.347656 96.144531 " fill-opacity="1" fill-rule="nonzero"/><path fill="#9d191d" d="M 131.566406 104.019531 L 139.316406 113.496094 L 125.71875 105.921875 Z M 131.566406 104.019531 " fill-opacity="1" fill-rule="nonzero"/><path fill="#9d191d" d="M 166.683594 119.152344 L 177.304688 125.066406 L 168.648438 127.289062 Z M 166.683594 119.152344 " fill-opacity="1" fill-rule="nonzero"/><path fill="#9d191d" d="M 151.878906 50.320312 L 145.1875 75.164062 L 130.855469 52.886719 Z M 151.878906 50.320312 " fill-opacity="1" fill-rule="nonzero"/><path fill="#9d191d" d="M 115.441406 118.4375 L 115.765625 139.203125 L 133.59375 128.5625 Z M 115.441406 118.4375 " fill-opacity="1" fill-rule="nonzero"/><path fill="#9d191d" d="M 73.570312 162.621094 L 77.003906 173.433594 L 66.125 167.371094 Z M 73.570312 162.621094 " fill-opacity="1" fill-rule="nonzero"/><path fill="#9d191d" d="M 132.539062 190.378906 L 132.820312 199.097656 L 142.746094 196.054688 Z M 132.539062 190.378906 " fill-opacity="1" fill-rule="nonzero"/><path fill="#9d191d" d="M 159.539062 154.550781 L 147.734375 162.449219 L 158.203125 168.277344 Z M 159.539062 154.550781 " fill-opacity="1" fill-rule="nonzero"/><g clip-path="url(#68dfb5caf6)"><path fill="#9d191d" d="M 170.980469 0.589844 L 155.589844 12.699219 L 175.144531 17.230469 Z M 170.980469 0.589844 " fill-opacity="1" fill-rule="nonzero"/></g><g clip-path="url(#47f05d1ecf)"><path fill="#9d191d" d="M 207.910156 57.660156 L 206.9375 66.507812 L 199.296875 57.550781 Z M 207.910156 57.660156 " fill-opacity="1" fill-rule="nonzero"/></g><path fill="#9d191d" d="M 146.285156 23.316406 L 135.730469 26.816406 L 139.703125 19.648438 Z M 146.285156 23.316406 " fill-opacity="1" fill-rule="nonzero"/><path fill="#9d191d" d="M 193.339844 90.898438 L 199.816406 84.683594 L 199.425781 94.285156 Z M 193.339844 90.898438 " fill-opacity="1" fill-rule="nonzero"/><path fill="#9d191d" d="M 90.382812 139.570312 L 97.03125 135.535156 L 89.089844 147.792969 Z M 90.382812 139.570312 " fill-opacity="1" fill-rule="nonzero"/><path fill="#9d191d" d="M 105.882812 107.019531 L 89.089844 111.46875 L 94.742188 101.300781 Z M 105.882812 107.019531 " fill-opacity="1" fill-rule="nonzero"/><path fill="#9d191d" d="M 128.5 73.542969 L 126.710938 88.804688 L 120.191406 79.589844 Z M 128.5 73.542969 " fill-opacity="1" fill-rule="nonzero"/><path fill="#9d191d" d="M 68.648438 125.929688 L 68.453125 147.511719 L 46.632812 139.765625 Z M 68.648438 125.929688 " fill-opacity="1" fill-rule="nonzero"/><path fill="#9d191d" d="M 93.96875 162.515625 L 90.859375 168.0625 L 101.609375 166.765625 Z M 93.96875 162.515625 " fill-opacity="1" fill-rule="nonzero"/><path fill="#9d191d" d="M 53.582031 164.328125 L 46.890625 177.40625 L 39.964844 160.527344 Z M 53.582031 164.328125 " fill-opacity="1" fill-rule="nonzero"/><path fill="#9d191d" d="M 80.390625 192.300781 L 75.058594 209.242188 L 68.496094 191.566406 Z M 80.390625 192.300781 " fill-opacity="1" fill-rule="nonzero"/><path fill="#9d191d" d="M 50.863281 202.054688 L 43.050781 200.046875 L 53.5625 189.449219 Z M 50.863281 202.054688 " fill-opacity="1" fill-rule="nonzero"/><path fill="#9d191d" d="M 31.652344 182.242188 L 24.507812 174.753906 L 25.027344 185.695312 Z M 31.652344 182.242188 " fill-opacity="1" fill-rule="nonzero"/><path fill="#9d191d" d="M 24.683594 206.351562 L 47.066406 212.609375 L 21.746094 215.179688 Z M 24.683594 206.351562 " fill-opacity="1" fill-rule="nonzero"/><g clip-path="url(#b8d9ae0f4e)"><path fill="#9d191d" d="M 15.273438 190.207031 L 15.636719 197.179688 L 0.960938 191.675781 Z M 15.273438 190.207031 " fill-opacity="1" fill-rule="nonzero"/></g></g></g></g></svg>